<svg width="241" height="231" viewBox="0 0 241 231" fill="none" xmlns="http://www.w3.org/2000/svg">
<g clip-path="url(#clip0_72_799)">
<path d="M63.1711 59.4975L96.6833 111.201L98.7886 110.344L65.2208 58.7478L63.1711 59.4975Z" fill="#3B7CD3"/>
<path d="M96.6028 111.447L96.5145 111.308L62.8679 59.397L65.3006 58.508L65.388 58.6395L99.0826 110.439L96.6028 111.447ZM63.4737 59.6091L96.7584 110.961L98.4893 110.26L65.1364 58.9909L63.4737 59.6091Z" fill="#3B7CD3"/>
<path d="M65.2217 58.7474L66.9843 58.0294L100.126 109.03L98.7896 110.342L65.2226 58.7465L65.2217 58.7474Z" fill="#DEECFF"/>
<path d="M98.7528 110.658L64.9219 58.6561L67.0627 57.7824L67.1501 57.9216L100.383 109.064L98.7518 110.658H98.7528ZM65.52 58.8433L98.82 110.032L99.8693 109.003L66.9072 58.2768L65.52 58.8433Z" fill="#3B7CD3"/>
<path d="M56.6469 24.8008C46.0042 8.99031 32.9086 -0.819121 27.402 2.86925C21.8953 6.55763 26.0579 22.4084 36.7055 38.2151C47.352 54.0217 60.4437 63.8398 65.9504 60.1264C71.458 56.4141 67.2742 40.6113 56.6469 24.8008ZM63.9401 54.0419C61.711 55.6365 48.8986 46.2821 40.5964 33.9488C32.2942 21.6155 29.1319 8.63126 31.5646 6.88884C33.9973 5.14641 45.8122 12.7104 54.1144 25.0446C62.4166 37.3779 67.8714 51.2271 63.92 54.0428H63.9401V54.0419Z" fill="#3B7CD3"/>
<path d="M63.1308 61.1285C60.4831 61.1285 57.05 59.6136 53.114 56.6664C47.5709 52.5153 41.6773 46.0073 36.5173 38.3435C25.8275 22.4649 21.6802 6.48642 27.2704 2.71837C32.8606 -1.04969 46.1078 8.81542 56.7784 24.6902C67.4489 40.565 71.6163 56.5435 66.0252 60.3116C65.1641 60.8684 64.1551 61.1535 63.1298 61.1285H63.1308ZM30.2013 2.29116C29.2432 2.26716 28.3005 2.53116 27.4941 3.04861C22.0825 6.69379 26.2979 22.4246 36.8494 38.1199C41.9855 45.7481 47.8473 52.2196 53.354 56.3467C58.8606 60.4738 63.2316 61.7218 65.8236 59.9794C71.2266 56.3342 67.0198 40.6034 56.4644 24.912C47.3885 11.4315 36.5182 2.29116 30.2013 2.29116ZM63.2469 54.4132C63.0732 54.4123 62.8994 54.3959 62.7285 54.3652C58.805 53.6519 47.903 45.1942 40.3976 34.06C31.9437 21.5068 28.9255 8.53893 31.433 6.72547C31.8314 6.44226 32.4142 6.37026 33.1879 6.51042C37.219 7.22467 47.0448 14.1982 54.2708 24.9331C62.3733 36.9678 68.2275 51.2077 64.0246 54.202C63.7942 54.3518 63.5215 54.4257 63.2469 54.4132ZM32.5025 6.84163C32.2135 6.82339 31.9265 6.89635 31.6807 7.04899C29.3517 8.7319 32.5543 21.6758 40.7404 33.8372C48.1776 44.8832 58.9394 53.2689 62.7996 53.9707C63.1337 54.0686 63.4937 54.0359 63.8047 53.8785C67.3414 51.3623 62.9234 38.4789 53.9511 25.1683C46.7731 14.5256 37.0913 7.62308 33.1274 6.91267C32.921 6.87139 32.7118 6.84643 32.5015 6.84067L32.5025 6.84163Z" fill="#3B7CD3"/>
<g opacity="0.5">
<path d="M64.0959 60.929L96.6827 111.2L98.788 110.343L66.1216 60.135L64.0959 60.929Z" fill="#3B7CD3"/>
<path d="M96.6822 111.401C96.6486 111.401 96.616 111.392 96.5872 111.376C96.5574 111.36 96.5325 111.337 96.5152 111.309L63.9284 61.0376C63.9121 61.0127 63.9025 60.9848 63.8987 60.956C63.8948 60.9272 63.8987 60.8975 63.9083 60.8696C63.9169 60.8408 63.9313 60.8149 63.9515 60.7928C63.9716 60.7707 63.9966 60.7534 64.0245 60.7429L66.0462 59.9451C66.0894 59.9298 66.1365 59.9288 66.1806 59.9422C66.2248 59.9557 66.2632 59.9835 66.2901 60.021L98.9517 110.233C98.9699 110.256 98.9805 110.283 98.9853 110.313C98.9891 110.342 98.9863 110.372 98.9757 110.4C98.968 110.428 98.9527 110.453 98.9325 110.475C98.9133 110.497 98.8883 110.513 98.8605 110.523L96.7552 111.381C96.7331 111.393 96.7081 111.4 96.6832 111.401H96.6822ZM64.3989 61.0175L96.7581 110.946L98.489 110.244L66.0414 60.379L64.3989 61.0175Z" fill="#3B7CD3"/>
</g>
<g opacity="0.5">
<path d="M56.6488 24.8008C46.0052 8.99028 32.9106 -0.819152 27.403 2.86922C21.8963 6.5576 26.0589 22.4084 36.7055 38.215C47.3521 54.0217 60.4438 63.8397 65.9504 60.1274C71.4571 56.415 67.2743 40.6122 56.6479 24.8008H56.6488ZM63.9421 54.0418C61.7129 55.6364 48.9006 46.282 40.5984 33.9487C32.2962 21.6154 29.1339 8.63123 31.5665 6.88881C33.9992 5.14638 45.8141 12.7103 54.1163 25.0446C62.4185 37.3779 67.8733 51.2271 63.9219 54.0428H63.9421V54.0418Z" fill="#3B7CD3"/>
<path d="M63.1315 61.1276C60.4838 61.1276 57.0508 59.6127 53.1147 56.6655C47.5716 52.5144 41.6781 46.0065 36.518 38.3427C25.8282 22.464 21.681 6.48554 27.2711 2.71748C32.8613 -1.05058 46.1085 8.81453 56.7791 24.6893C67.4497 40.5641 71.6171 56.5426 66.026 60.3107C65.1648 60.8675 64.1558 61.1526 63.1306 61.1276H63.1315ZM30.2021 2.29027C29.244 2.26627 28.3012 2.53028 27.4948 3.04773C22.0832 6.6929 26.2986 22.4237 36.8502 38.119C41.9862 45.7472 47.8481 52.2187 53.3547 56.3458C58.8614 60.4729 63.2323 61.7209 65.8244 59.9785C71.2273 56.3333 67.0205 40.6025 56.4652 24.9111C47.3892 11.4306 36.5189 2.29027 30.2021 2.29027ZM63.2477 54.4123C63.0739 54.4114 62.9002 54.3951 62.7293 54.3643C58.8057 53.651 47.9038 45.1933 40.3984 34.0591C31.9445 21.5059 28.9262 8.53805 31.4338 6.72458C31.8322 6.44138 32.4149 6.36938 33.1887 6.50954C37.2198 7.22379 47.0455 14.1973 54.2715 24.9322C62.3741 36.967 68.2282 51.2069 64.0253 54.2011C63.7949 54.3509 63.5222 54.4248 63.2477 54.4123ZM32.5032 6.84074C32.2142 6.8225 31.9272 6.89546 31.6814 7.04811C29.3524 8.73101 32.555 21.6749 40.7411 33.8363C48.1783 44.8823 58.9401 53.268 62.8003 53.9698C63.1344 54.0677 63.4944 54.035 63.8054 53.8776C67.3421 51.3614 62.9242 38.478 53.9519 25.1674C46.7738 14.5247 37.0921 7.62219 33.1282 6.91178C32.9218 6.8705 32.7125 6.84554 32.5022 6.83978L32.5032 6.84074Z" fill="#3B7CD3"/>
</g>
<path d="M60.7036 55.7291C55.364 56.4146 48.1226 49.1933 40.646 39.6393C31.6065 28.0749 29.1018 19.382 28.2849 13.764C27.4679 8.146 31.571 6.88934 31.571 6.88934C29.1546 8.63177 32.2766 21.6198 40.5826 33.9493C48.8887 46.2787 61.6972 55.6254 63.9263 54.0424C64.5964 53.5633 64.9948 52.7704 65.159 51.7172L65.2387 51.8286C65.2387 51.8286 66.0441 55.0341 60.7045 55.7282L60.7036 55.7291Z" fill="#DEECFF"/>
<path d="M59.973 55.9755C55.339 55.9755 49.1152 50.7914 40.4857 39.758C33.3681 30.6666 29.3207 22.1724 28.0804 13.7905C27.2432 8.07654 31.4615 6.70852 31.5057 6.697L32.6577 6.3418L31.6804 7.04741C29.3514 8.73031 32.554 21.6742 40.7401 33.8366C48.1773 44.8825 58.9391 53.2683 62.7993 53.97C63.1334 54.068 63.4934 54.0353 63.8044 53.8788C64.4102 53.4478 64.7971 52.7105 64.9526 51.6852L65.0246 51.2148L65.423 51.7774C65.4941 52.146 65.4893 52.5243 65.4105 52.891C65.3318 53.2577 65.1801 53.6043 64.9641 53.9105C64.2345 54.979 62.807 55.6568 60.7209 55.9285C60.4722 55.9601 60.2216 55.9765 59.9711 55.9765L59.973 55.9755ZM30.9402 7.39109C29.8478 8.01702 27.8893 9.72393 28.4759 13.7358C29.6961 22.0419 33.7272 30.4833 40.8015 39.5151C49.8093 51.0276 56.1301 56.1195 60.6757 55.5329C62.638 55.2776 63.9695 54.6593 64.6358 53.6945C64.7433 53.5361 64.8326 53.3662 64.9027 53.1886C64.7001 53.5918 64.4016 53.9393 64.0329 54.2014C63.8371 54.3128 63.6211 54.3848 63.3974 54.4126C63.1737 54.4404 62.9462 54.4241 62.7292 54.3646C58.8056 53.6503 47.9037 45.1936 40.3983 34.0593C32.65 22.5353 29.4724 10.6599 30.9402 7.39013V7.39109Z" fill="#3B7CD3"/>
<path d="M66.9715 59.6969C66.7199 59.8034 66.4598 59.8898 66.1939 59.9522C69.9504 54.8997 66.4694 39.4204 56.6235 24.8013C46.1008 9.17033 33.1847 -0.595901 27.5706 2.76991C27.9997 2.15166 28.5402 1.61789 29.1651 1.19837C35.6884 -3.11594 48.4173 6.78085 58.9765 22.767C69.5357 38.7532 75.6241 55.4776 66.9715 59.6959V59.6969Z" fill="#DEECFF"/>
<path d="M65.7549 60.2188L66.0343 59.8204C69.5671 55.0712 66.5642 39.902 56.4639 24.9009C46.0967 9.48879 33.1768 -0.364805 27.674 2.92516L26.8762 3.41573L27.4263 2.61796C27.8775 1.98819 28.441 1.4477 29.0891 1.02338C35.4693 -3.18725 48.1098 5.90793 59.1797 22.6477C68.3076 36.4489 72.6891 48.5671 70.9111 55.1029C70.6654 56.1311 70.193 57.0921 69.5297 57.9148C68.8663 58.7375 68.0272 59.4028 67.0749 59.8607L66.9875 59.6812L67.0749 59.8607C66.8042 59.9788 66.5248 60.0719 66.2378 60.1401L65.7549 60.2198V60.2188ZM30.2056 1.89987C36.7135 1.89987 47.5799 10.9998 56.7951 24.6887C61.4329 31.5787 64.9533 39.1196 66.7043 45.9146C68.2711 51.9953 68.2519 56.9289 66.6688 59.6006L66.8839 59.5171C67.7844 59.0802 68.5764 58.4486 69.2033 57.669C69.8311 56.8895 70.2775 55.9804 70.5118 55.0069C72.259 48.5988 67.8967 36.5881 58.8322 22.8791C47.8871 6.33418 35.4655 -2.713 29.2926 1.34594C28.9268 1.58882 28.5898 1.87203 28.2874 2.19171C28.9047 1.98435 29.5537 1.88547 30.2056 1.90083V1.89987Z" fill="#3B7CD3"/>
<path d="M106.461 40.9269V41.9118C106.461 42.5695 105.081 42.965 105.081 42.965L102.106 42.3871L98.9159 44.4808L90.7529 40.2059C89.7554 39.9688 88.8194 39.5243 88.0053 38.9012C87.1902 38.2792 86.5154 37.4929 86.0238 36.5924C84.3169 33.506 87.9938 32.1303 87.9938 32.1303C87.9938 32.1303 87.3362 30.8822 88.9788 29.1715C89.3896 28.6924 89.9512 28.367 90.5714 28.2489C91.1916 28.1299 91.8329 28.2249 92.3926 28.5177C92.3926 28.5177 93.3766 26.4124 97.1178 26.3481C100.858 26.2847 100.271 30.8822 100.271 30.8822C100.825 30.4829 101.472 30.2313 102.15 30.1517C102.828 30.071 103.515 30.1651 104.148 30.4234C106.249 31.3402 105.065 34.6897 105.065 34.6897C105.065 34.6897 107.23 34.8173 108.218 37.4487C109.208 40.0801 106.461 40.9259 106.461 40.9259V40.9269Z" fill="#5E96FC"/>
<path d="M98.9153 44.6679C98.8827 44.6679 98.852 44.6602 98.8232 44.6439L90.7005 40.3968C89.679 40.1539 88.7209 39.6989 87.8876 39.0605C87.0543 38.4221 86.3641 37.6157 85.8639 36.6921C85.6239 36.3168 85.4713 35.8924 85.4156 35.4499C85.3609 35.0073 85.405 34.559 85.5452 34.1356C85.9993 32.9116 87.2751 32.2377 87.7542 32.0178C87.6227 31.5752 87.4911 30.4424 88.8505 29.0312C89.2681 28.5445 89.8307 28.2037 90.4557 28.0606C91.0806 27.9176 91.7354 27.9781 92.3239 28.2334C92.6627 27.7073 93.9184 26.1838 97.1326 26.1281C97.5819 26.0955 98.0331 26.1636 98.4526 26.3278C98.8721 26.492 99.2494 26.7483 99.5576 27.0776C100.491 28.1221 100.546 29.7253 100.519 30.4751C101.075 30.1419 101.702 29.9451 102.35 29.9C102.997 29.8559 103.645 29.9653 104.242 30.2197C106.177 31.0655 105.579 33.7007 105.344 34.5062C105.966 34.6262 107.588 35.1446 108.421 37.3574C108.575 37.703 108.655 38.0774 108.655 38.4557C108.655 38.8339 108.575 39.2083 108.421 39.5539C108.035 40.2432 107.416 40.7722 106.675 41.0448V41.8906C106.675 42.6884 105.307 43.0868 105.152 43.1348C105.122 43.1425 105.09 43.1425 105.06 43.1348L102.141 42.5722L99.043 44.666C99.0017 44.6785 98.9566 44.6785 98.9153 44.666V44.6679ZM91.096 28.3784C90.7206 28.3851 90.351 28.4715 90.0112 28.6299C89.6713 28.7883 89.368 29.0168 89.1212 29.3C87.6102 30.8706 88.1449 31.9794 88.1689 32.0274C88.1814 32.0524 88.1881 32.0812 88.1881 32.109C88.1881 32.1369 88.1814 32.1657 88.1689 32.1906C88.1593 32.2165 88.143 32.2405 88.1238 32.2597C88.1036 32.2789 88.0796 32.2933 88.0528 32.3029C88.0528 32.3029 86.3823 32.949 85.8956 34.269C85.7775 34.6377 85.743 35.0265 85.7929 35.4105C85.8438 35.7936 85.9782 36.1612 86.1865 36.4867C86.6665 37.3584 87.3222 38.1206 88.1123 38.7254C88.9024 39.3302 89.8096 39.7642 90.7763 39.9994L90.8368 40.0195L98.9153 44.2705L101.97 42.2448C101.991 42.2304 102.015 42.2199 102.04 42.2141C102.066 42.2084 102.092 42.2084 102.117 42.2132L105.068 42.7834C105.466 42.6519 106.264 42.3053 106.264 41.9338V40.9488C106.264 40.9066 106.278 40.8643 106.303 40.8298C106.328 40.7952 106.363 40.7703 106.404 40.7568C107.097 40.5235 107.682 40.0483 108.051 39.4166C108.182 39.121 108.251 38.8013 108.251 38.4777C108.251 38.1542 108.182 37.8345 108.051 37.5389C107.125 35.0707 105.155 34.9151 105.072 34.9113C105.041 34.9103 105.011 34.9017 104.985 34.8863C104.959 34.871 104.937 34.8499 104.92 34.8239C104.903 34.799 104.892 34.7692 104.889 34.7395C104.884 34.7087 104.887 34.678 104.896 34.6492C104.896 34.6175 105.994 31.4591 104.099 30.6258C103.499 30.3858 102.849 30.2994 102.207 30.3752C101.566 30.4511 100.953 30.6863 100.426 31.0607C100.394 31.0828 100.354 31.0952 100.315 31.0952C100.276 31.0952 100.236 31.0837 100.204 31.0607C100.17 31.0415 100.143 31.0127 100.126 30.9772C100.109 30.9426 100.102 30.9032 100.108 30.8648C100.108 30.8408 100.378 28.604 99.2744 27.3713C99.0027 27.0862 98.6724 26.8654 98.3057 26.7243C97.938 26.5832 97.5444 26.5246 97.1527 26.5544C93.5959 26.6139 92.6109 28.5877 92.6032 28.6078C92.5907 28.6328 92.5735 28.6549 92.5523 28.6731C92.5312 28.6914 92.5063 28.7038 92.4794 28.7115C92.4544 28.7221 92.4266 28.7278 92.3997 28.7278C92.3728 28.7278 92.345 28.7221 92.32 28.7115C91.9514 28.5032 91.5347 28.3938 91.1114 28.3928L91.096 28.3813V28.3784Z" fill="#5E96FC"/>
<path d="M106.461 40.9274V41.9124C106.461 42.57 104.885 43.1403 104.885 43.1403L102.094 42.3866C102.094 42.3866 104.231 42.0199 104.809 41.6494C104.987 41.513 105.13 41.3374 105.227 41.1358C105.324 40.9341 105.373 40.7124 105.368 40.4887C106.16 39.7284 106.724 38.7616 106.994 37.697C107.314 36.1024 105.093 34.6902 105.093 34.6902C105.093 34.6902 107.257 34.8179 108.247 37.4493C109.236 40.0807 106.461 40.9265 106.461 40.9265V40.9274Z" fill="#3B7CD3"/>
<path d="M91.3394 40.3164C91.3394 40.3164 87.4436 38.55 88.8913 35.9541C89.9157 34.1157 90.4379 38.1189 91.7378 38.4021C93.0386 38.6853 92.3359 40.0332 92.3359 40.0332L91.3394 40.3164Z" fill="#3B7CD3"/>
<path d="M110.021 55.3182C106.727 57.1643 103.828 53.7706 103.828 53.7706C103.708 53.0305 103.548 52.297 103.35 51.5732C103.063 50.5364 102.645 49.3882 102.082 48.7344C101.584 48.1478 100.941 48.072 100.199 48.2237C99.1635 48.431 97.927 49.0848 96.5868 49.4199C94.2905 50.018 93.4409 46.2739 92.9983 45.3763C92.5557 44.4787 91.7503 44.9779 90.5618 43.678C89.3733 42.3782 91.252 38.0955 91.252 38.0955C91.5823 38.3269 91.9365 38.5237 92.3081 38.6821C93.1058 39.0805 95.7459 37.3419 96.7942 37.4418C97.8435 37.5416 98.0941 42.3868 98.9917 42.2265C99.8893 42.0671 98.7123 40.2325 98.96 39.0882C99.2067 37.9438 101.899 36.3406 103.39 37.892C105.878 40.4716 103.39 42.6335 103.39 42.6335L112.924 45.8236C112.924 45.8236 114.894 52.5869 110.021 55.3182Z" fill="#DEECFF"/>
<path d="M107.999 56.064C105.559 56.064 103.696 53.927 103.676 53.8992C103.652 53.8704 103.636 53.8368 103.629 53.7993C103.51 53.0669 103.352 52.3411 103.154 51.6259V51.598C102.935 50.6121 102.519 49.6809 101.934 48.8582C101.535 48.3916 101.017 48.2524 100.239 48.4117C99.6516 48.5538 99.0775 48.743 98.5207 48.9782C97.9063 49.2278 97.2775 49.4409 96.6381 49.6166C94.5731 50.1551 93.6074 47.5554 93.089 46.1557C92.9814 45.8687 92.8902 45.621 92.8144 45.4703C92.7328 45.3195 92.6195 45.189 92.4813 45.0872C92.344 44.9855 92.1846 44.9163 92.0166 44.8837C91.3907 44.6821 90.831 44.3144 90.398 43.819C89.1299 42.4395 90.9721 38.1924 91.0518 38.0129C91.0633 37.9841 91.0825 37.9591 91.1056 37.9389C91.1296 37.9188 91.1574 37.9044 91.1872 37.8967C91.2169 37.89 91.2477 37.89 91.2774 37.8967C91.3072 37.9034 91.335 37.9169 91.359 37.9361C91.6777 38.1569 92.0186 38.345 92.3757 38.4986C92.7309 38.6657 93.7034 38.2596 94.5607 37.9005C95.418 37.5415 96.2551 37.1911 96.7937 37.2391C97.4714 37.3025 97.7988 38.5946 98.1454 39.9627C98.3287 40.6923 98.6724 42.0401 98.9431 42.0401C98.97 42.0392 98.9969 42.0315 99.0199 42.018C99.0439 42.0046 99.0641 41.9864 99.0785 41.9643C99.1947 41.7924 99.0785 41.2827 98.947 40.8315C98.7521 40.2603 98.6859 39.6526 98.7521 39.0526C98.9115 38.3105 99.884 37.4858 100.969 37.1786C101.405 37.025 101.875 36.9981 102.326 37.1009C102.776 37.2036 103.189 37.4301 103.517 37.7565C103.882 38.0926 104.175 38.5015 104.375 38.9566C104.575 39.4116 104.677 39.9031 104.677 40.4004C104.619 41.202 104.288 41.9604 103.74 42.5499L112.972 45.6363C113.003 45.6469 113.029 45.6651 113.052 45.6882C113.075 45.7122 113.091 45.741 113.1 45.7717C113.124 45.8399 115.065 52.7145 110.112 55.4938C109.469 55.8624 108.741 56.0583 107.999 56.064ZM104.011 53.6717C104.362 54.0701 106.962 56.7898 109.917 55.1309C114.279 52.6867 112.959 46.8085 112.744 45.9599L103.302 42.8254C103.267 42.8158 103.236 42.7966 103.213 42.7697C103.189 42.7438 103.172 42.7112 103.165 42.6766C103.159 42.6421 103.161 42.6056 103.173 42.572C103.185 42.5384 103.207 42.5086 103.233 42.4865C103.824 41.9326 104.191 41.1828 104.266 40.3774C104.264 39.9358 104.168 39.4999 103.988 39.0967C103.808 38.6935 103.545 38.3326 103.218 38.0359C102.938 37.7652 102.588 37.578 102.208 37.4954C101.828 37.4129 101.431 37.4369 101.065 37.5655C100.048 37.8525 99.2427 38.61 99.1265 39.1409C99.0814 39.6804 99.1476 40.2228 99.3223 40.7355C99.4779 41.3412 99.6094 41.8635 99.402 42.187C99.3569 42.2542 99.2983 42.3118 99.2292 42.3541C99.1611 42.3963 99.0833 42.4241 99.0027 42.4337C98.3806 42.5297 98.106 41.4449 97.7546 40.0654C97.5156 39.1121 97.1489 37.673 96.7543 37.6404C96.3588 37.6087 95.5015 37.9389 94.7124 38.2702C93.6832 38.6964 92.7184 39.1034 92.2 38.8606C91.8976 38.7223 91.6029 38.5668 91.3187 38.394C90.7801 39.6977 89.8316 42.6209 90.6851 43.5502C91.0758 43.9995 91.5837 44.3317 92.152 44.5112C92.367 44.563 92.5677 44.661 92.7414 44.7992C92.9142 44.9375 93.0544 45.1112 93.1533 45.309C93.2368 45.476 93.329 45.7074 93.4442 46.0309C93.9549 47.4028 94.8036 49.6914 96.5229 49.2489C97.1469 49.0732 97.7604 48.863 98.3614 48.6191C98.9403 48.3772 99.5374 48.1833 100.147 48.0373C100.512 47.925 100.901 47.9193 101.268 48.021C101.636 48.1228 101.966 48.3282 102.221 48.6114C102.711 49.1855 103.15 50.1667 103.529 51.5308V51.5587C103.82 52.5475 103.976 53.4403 104.016 53.6841L104.011 53.6726V53.6717Z" fill="#3B7CD3"/>
<path d="M99.7444 40.4958C99.6916 40.4958 99.6407 40.4747 99.6032 40.4372C99.5658 40.3998 99.5447 40.3489 99.5447 40.2961C99.5447 40.2241 99.5764 38.5057 100.965 38.139C101.259 38.0305 101.581 38.0238 101.879 38.1198C102.178 38.2158 102.435 38.4087 102.611 38.6689C102.623 38.6919 102.632 38.7169 102.635 38.7428C102.638 38.7687 102.635 38.7956 102.627 38.8206C102.621 38.8455 102.608 38.8695 102.592 38.8897C102.575 38.9099 102.554 38.9271 102.531 38.9396C102.508 38.9521 102.483 38.9598 102.457 38.9626C102.431 38.9655 102.405 38.9627 102.38 38.9559C102.355 38.9483 102.331 38.9367 102.31 38.9195C102.29 38.9031 102.273 38.883 102.261 38.8599C102.261 38.8398 101.926 38.2935 101.064 38.521C99.9719 38.8119 99.944 40.2836 99.944 40.3C99.944 40.3259 99.9383 40.3518 99.9287 40.3758C99.9181 40.3998 99.9037 40.4219 99.8855 40.4401C99.8663 40.4584 99.8442 40.4728 99.8202 40.4824C99.7962 40.492 99.7703 40.4968 99.7444 40.4958Z" fill="#3B7CD3"/>
<path d="M101.622 40.6801H101.583C101.328 40.6148 101.088 40.4996 100.877 40.3412C100.542 40.0897 100.793 39.7508 100.941 39.5434C101.066 39.4013 101.156 39.2324 101.204 39.049C101.204 39.001 101.204 38.9809 101.185 38.9693C100.994 38.8657 100.776 38.8282 100.562 38.8618C100.51 38.8657 100.458 38.8484 100.417 38.8157C100.376 38.7821 100.349 38.7351 100.343 38.6823C100.338 38.6295 100.354 38.5767 100.388 38.5364C100.421 38.4951 100.469 38.4692 100.522 38.4634C100.858 38.4164 101.199 38.4989 101.475 38.6948C101.524 38.7476 101.562 38.8109 101.583 38.8801C101.605 38.9492 101.61 39.0221 101.599 39.0941C101.545 39.3418 101.429 39.5722 101.264 39.7642C101.201 39.8381 101.15 39.9217 101.113 40.0119C101.28 40.131 101.468 40.2193 101.666 40.2711C101.719 40.2769 101.768 40.3038 101.801 40.345C101.834 40.3863 101.85 40.4391 101.844 40.4919C101.838 40.5447 101.811 40.5937 101.77 40.6263C101.729 40.6599 101.676 40.6753 101.622 40.6695V40.681V40.6801Z" fill="#3B7CD3"/>
<path d="M94.529 46.4896C94.4234 46.4915 94.3178 46.481 94.2141 46.4579C94.1623 46.4445 94.1181 46.4119 94.0903 46.3667C94.0634 46.3216 94.0547 46.2669 94.0663 46.2151C94.073 46.1891 94.0845 46.1661 94.0999 46.145C94.1162 46.1239 94.1354 46.1066 94.1584 46.0931C94.1805 46.0797 94.2055 46.0711 94.2323 46.0672C94.2583 46.0634 94.2842 46.0653 94.3101 46.072C94.5424 46.1075 94.7805 46.0903 95.0052 46.0211C95.2298 45.952 95.4372 45.833 95.61 45.6736C96.2359 45.1389 95.8135 43.8313 95.8087 43.8198C95.7924 43.7699 95.7962 43.7161 95.8192 43.6691C95.8423 43.6221 95.8836 43.5865 95.9325 43.5683C95.9575 43.5597 95.9844 43.5558 96.0113 43.5577C96.0372 43.5597 96.0631 43.5664 96.0871 43.5789C96.1111 43.5913 96.1322 43.6077 96.1495 43.6278C96.1668 43.648 96.1802 43.671 96.1879 43.6969C96.2081 43.7603 96.6986 45.2723 95.8692 45.9779C95.4986 46.3043 95.0224 46.4877 94.529 46.4925V46.4896Z" fill="#3B7CD3"/>
<path d="M93.0184 41.4571C93.2891 41.4571 93.509 41.2373 93.509 40.9666C93.509 40.6959 93.2891 40.476 93.0184 40.476C92.7477 40.476 92.5278 40.6959 92.5278 40.9666C92.5278 41.2373 92.7477 41.4571 93.0184 41.4571Z" fill="#3B7CD3"/>
<path d="M103.765 45.0218C103.765 45.0218 103.948 47.0513 103.948 48.523C103.922 49.484 103.774 50.4382 103.506 51.3617C103.272 50.3547 102.838 49.4052 102.23 48.571C101.995 48.3022 101.688 48.1044 101.347 48.0007C101.005 47.898 100.64 47.8932 100.295 47.9882C100.295 47.9882 101.891 47.5658 102.728 46.553C103.146 46.0951 103.494 45.5796 103.765 45.0218Z" fill="#3B7CD3"/>
<path d="M150.459 45.8843C150.459 45.8843 159.451 47.4117 166.84 59.2352C174.229 71.0587 176.809 85.0193 176.809 85.0193L147.253 71.5733L150.459 45.8852V45.8843Z" fill="#DEECFF"/>
<path d="M176.817 85.2177C176.79 85.2225 176.761 85.2225 176.733 85.2177L147.166 71.7516C147.127 71.7353 147.094 71.7065 147.073 71.669C147.052 71.6326 147.044 71.5894 147.05 71.5481L150.24 45.86C150.244 45.8331 150.252 45.8072 150.266 45.7842C150.279 45.7611 150.297 45.741 150.32 45.7246C150.364 45.6939 150.418 45.6805 150.471 45.6891C150.563 45.6891 159.642 47.3682 166.992 59.1274C174.341 70.8866 176.961 84.8433 176.993 84.9825C176.998 85.019 176.994 85.0555 176.981 85.0891C176.969 85.1227 176.946 85.1524 176.917 85.1745C176.889 85.1985 176.854 85.2139 176.817 85.2187V85.2177ZM147.477 71.4521L176.542 84.6753C176.067 82.3626 173.28 69.9209 166.672 59.3377C160.066 48.7545 152.006 46.4418 150.631 46.1231L147.477 71.4521Z" fill="#3B7CD3"/>
<path d="M101.093 75.1887C101.093 75.1887 99.2026 80.2249 92.5276 78.5065C85.8527 76.788 70.2447 68.9361 68.3026 72.9797C66.7992 76.1218 69.7542 77.9679 69.7542 77.9679C69.7542 77.9679 67.7209 80.9113 68.0761 83.7578C68.4313 86.6052 73.9744 99.2697 79.6673 99.8562C81.8811 100.088 83.5073 100.402 88.8911 99.1785L91.0319 95.0427C91.0319 95.0427 92.6908 98.4757 93.4243 98.3212C102.704 96.3627 112.769 93.1092 114.619 91.3188C117.553 88.4791 117.757 85.433 117.757 85.433L101.093 75.1887Z" fill="#DEECFF"/>
<path d="M82.5671 100.271C81.7472 100.262 80.9283 100.207 80.1142 100.106L79.6438 100.055C73.7503 99.445 68.2033 86.4099 67.8769 83.7814C67.5582 81.245 69.053 78.6856 69.4715 78.0155C68.8494 77.5489 66.7681 75.7067 68.116 72.8958C69.5714 69.8611 77.8016 72.9668 85.0631 75.7105C87.9307 76.7953 90.6456 77.8158 92.5723 78.315C98.9795 79.9653 100.822 75.3198 100.898 75.1249C100.908 75.0961 100.924 75.0711 100.945 75.05C100.966 75.0289 100.991 75.0135 101.02 75.0039C101.047 74.9943 101.077 74.9915 101.107 74.9943C101.136 74.9982 101.164 75.0087 101.189 75.0251L117.85 85.2694C117.881 85.2876 117.906 85.3145 117.923 85.3471C117.941 85.3798 117.947 85.4163 117.945 85.4527C117.945 85.5804 117.706 88.6064 114.754 91.4615C112.912 93.2442 103.163 96.4737 93.4652 98.5195C92.7432 98.6712 91.6229 96.6695 91.0286 95.4887L89.0664 99.2731C89.0529 99.299 89.0337 99.3211 89.0117 99.3384C88.9886 99.3566 88.9627 99.3691 88.9348 99.3768C85.8609 100.071 84.0109 100.271 82.5671 100.271ZM70.9231 72.0337C69.7067 72.0337 68.8341 72.3332 68.4827 73.0666C67.0753 76.0062 69.747 77.7246 69.8584 77.7966C69.8814 77.8101 69.9016 77.8283 69.9179 77.8504C69.9333 77.8725 69.9448 77.8974 69.9506 77.9233C69.9602 77.9781 69.9486 78.0337 69.9179 78.0789C69.9179 78.1077 67.9249 80.9983 68.2753 83.7334C68.6737 86.8563 74.2092 99.0897 79.688 99.66L80.1747 99.6965C82.1687 99.9115 83.8746 100.095 88.7678 98.9899L90.8693 94.9386C90.8856 94.907 90.9106 94.8801 90.9422 94.8609C90.973 94.8417 91.0085 94.8311 91.045 94.8311C91.0814 94.8311 91.117 94.8417 91.1486 94.8618C91.1794 94.881 91.2043 94.9098 91.2197 94.9425C92.0693 96.6974 93.086 98.1883 93.3893 98.1134C102.86 96.1195 112.717 92.8689 114.484 91.1629C116.098 89.671 117.175 87.6896 117.55 85.5238L101.201 75.4676C100.727 76.4363 98.4534 80.2207 92.5003 78.6894C90.5506 78.1874 87.827 77.1582 84.9479 76.0696C80.0067 74.2235 74.1929 72.0337 70.9231 72.0337Z" fill="#3B7CD3"/>
<path d="M204.156 168.977L212.351 173.101L229.287 168.977L228.305 154.447L215.545 151.109L204.156 168.977Z" fill="#DEECFF"/>
<path d="M75.6162 156.308L62.2576 168.131L90.889 202.692L105.794 186.785L75.6162 156.308Z" fill="#DEECFF"/>
<path d="M90.8885 202.891C90.8597 202.891 90.8318 202.884 90.8059 202.872C90.781 202.859 90.7579 202.841 90.7406 202.819L62.1101 168.258C62.0775 168.219 62.0612 168.168 62.065 168.117C62.0688 168.065 62.0919 168.017 62.1303 167.983L75.4889 156.156C75.5263 156.122 75.5753 156.103 75.6262 156.103C75.6771 156.103 75.727 156.122 75.7644 156.156L105.939 186.633C105.975 186.67 105.995 186.719 105.995 186.771C105.995 186.823 105.975 186.872 105.939 186.909L91.0363 202.815C91.019 202.837 90.996 202.855 90.971 202.868C90.9451 202.881 90.9173 202.889 90.8894 202.891H90.8885ZM62.5364 168.155L90.9 202.393L105.514 186.789L75.6079 156.579L62.5364 168.155Z" fill="#3B7CD3"/>
<path d="M89.0182 99.1307C88.9711 99.1327 88.9251 99.1173 88.8905 99.0866C88.8694 99.0703 88.8531 99.0501 88.8396 99.0271C88.8271 99.004 88.8195 98.9791 88.8175 98.9531C88.8147 98.9272 88.8175 98.9004 88.8252 98.8754C88.8329 98.8504 88.8454 98.8274 88.8627 98.8072C88.8857 98.7755 91.4585 95.5739 90.4572 93.3524C89.1497 90.3821 87.6338 90.7124 87.5705 90.7287C87.5186 90.7412 87.4639 90.7316 87.4188 90.7047C87.3727 90.6769 87.3401 90.6327 87.3266 90.5809C87.3209 90.5559 87.319 90.53 87.3228 90.5041C87.3266 90.4781 87.3353 90.4532 87.3487 90.4311C87.3622 90.409 87.3794 90.3898 87.4006 90.3745C87.4217 90.3591 87.4457 90.3476 87.4706 90.3418C87.5465 90.3217 89.3647 89.8868 90.8201 93.1892C91.9011 95.6373 89.2649 98.9195 89.1497 99.0587C89.1334 99.0789 89.1132 99.0952 89.0902 99.1077C89.0681 99.1202 89.0431 99.1279 89.0182 99.1307Z" fill="#3B7CD3"/>
<path d="M82.8055 93.4594C82.7527 93.4661 82.6989 93.4517 82.6567 93.42C82.6144 93.3874 82.5876 93.3394 82.5799 93.2866C82.5732 93.2328 82.5876 93.18 82.6202 93.1378C82.6528 93.0955 82.7009 93.0677 82.7537 93.061C82.794 93.061 87.044 91.8648 87.8859 89.4283C88.2248 88.451 87.9656 87.3863 87.1236 86.2382C83.6234 81.5408 79.0816 84.2922 78.8896 84.4122C78.8675 84.4257 78.8426 84.4353 78.8166 84.4391C78.7907 84.4439 78.7648 84.4429 78.7389 84.4372C78.713 84.4314 78.689 84.4199 78.6678 84.4045C78.6467 84.3892 78.6285 84.37 78.615 84.3479C78.5872 84.3028 78.5786 84.249 78.591 84.1972C78.6026 84.1463 78.6342 84.1012 78.6784 84.0724C78.7302 84.0407 83.7223 81.0022 87.451 86.003C88.3765 87.2433 88.6472 88.4356 88.2689 89.5435C87.355 92.1835 83.0445 93.3797 82.8612 93.4277C82.8458 93.4431 82.8266 93.4536 82.8055 93.4594Z" fill="#3B7CD3"/>
<path d="M83.2044 83.6262C83.164 83.6272 83.1247 83.6156 83.0911 83.5926C83.0575 83.5696 83.0316 83.5369 83.0172 83.4985C83.0076 83.4745 83.0028 83.4476 83.0037 83.4217C83.0047 83.3948 83.0104 83.3689 83.021 83.3449C83.0316 83.3209 83.0469 83.2988 83.0661 83.2816C83.0853 83.2633 83.1084 83.2489 83.1333 83.2393C83.2994 83.1616 83.4472 83.0502 83.5692 82.9139C83.6911 82.7766 83.7842 82.6163 83.8428 82.4425C84.078 81.7926 83.8985 80.8873 83.3205 79.8226C80.501 74.6385 69.9226 78.108 69.8189 78.1436C69.793 78.1522 69.767 78.156 69.7402 78.1541C69.7133 78.1522 69.6874 78.1455 69.6643 78.133C69.6403 78.1215 69.6192 78.1052 69.6019 78.085C69.5846 78.0648 69.5712 78.0408 69.5635 78.0159C69.5482 77.966 69.553 77.9112 69.577 77.8642C69.6 77.8181 69.6413 77.7816 69.6912 77.7644C70.1376 77.6175 80.693 74.1758 83.6709 79.6306C84.317 80.8268 84.5004 81.8156 84.2133 82.5855C84.1337 82.8102 84.0089 83.0156 83.8466 83.1904C83.6853 83.3651 83.4895 83.5052 83.2725 83.6022C83.2514 83.6147 83.2284 83.6224 83.2044 83.6262Z" fill="#3B7CD3"/>
<path d="M89.019 98.9307L91.0322 95.0426L93.0943 98.2126C93.0943 98.2126 91.5189 96.7533 91.0687 96.809C90.6175 96.8657 89.019 98.9307 89.019 98.9307Z" fill="#3B7CD3"/>
<path d="M168.539 76.1897C168.539 76.1897 187.396 90.325 193.131 112.225C198.865 134.125 199.327 138.483 199.327 138.483L220.438 151.136C220.438 151.136 220.211 159.111 215.389 163.713C212.278 166.613 208.809 169.105 205.065 171.126C205.065 171.126 175.386 159.442 170.373 151.136C165.361 142.83 160.544 135.637 160.544 135.637C160.544 135.637 104.176 196.432 101.328 197.121C99.7355 197.549 98.043 197.408 96.5435 196.722L101.632 191.319C101.632 191.319 98.5451 180.855 90.7133 172.665C83.4124 165.029 71.1981 156.767 67.7603 159.614C64.3225 162.461 131.008 97.2083 131.008 97.2083L129.413 84.4161L164.56 73.2262L168.539 76.1897Z" fill="#5E96FC"/>
<path d="M99.4213 197.552C98.3893 197.572 97.3669 197.351 96.4347 196.906C96.4098 196.89 96.3877 196.869 96.3704 196.844C96.3531 196.819 96.3416 196.791 96.3358 196.763C96.331 196.732 96.3339 196.701 96.3426 196.672C96.3522 196.644 96.3666 196.617 96.3877 196.595L101.396 191.275C101.041 190.142 97.8431 180.429 90.5613 172.808C82.8697 164.765 71.0222 157.157 67.88 159.773C67.7764 159.861 67.6132 159.992 67.4816 159.845C67.3501 159.697 67.3146 159.658 70.1447 156.811C71.7758 155.176 74.1806 152.779 77.2949 149.697C82.5423 144.513 89.8759 137.279 99.0911 128.227C114.244 113.337 129.62 98.2919 130.793 97.1438L129.197 84.4514C129.191 84.4053 129.201 84.3583 129.226 84.3189C129.251 84.2796 129.288 84.2508 129.332 84.2364L164.476 73.0426C164.506 73.033 164.538 73.0301 164.569 73.0359C164.601 73.0416 164.63 73.0551 164.655 73.0752L168.642 76.0292C168.834 76.1732 187.62 90.4563 193.31 112.173C198.553 132.135 199.403 137.579 199.514 138.375L220.537 150.973C220.567 150.991 220.592 151.018 220.61 151.05C220.626 151.08 220.635 151.116 220.633 151.152C220.633 151.232 220.346 159.266 215.525 163.865C212.396 166.773 208.913 169.274 205.157 171.31C205.13 171.321 205.102 171.327 205.073 171.327C205.044 171.327 205.016 171.321 204.989 171.31C203.793 170.831 175.19 159.506 170.206 151.24C165.728 143.819 161.353 137.203 160.523 135.959C156.476 140.325 104.195 196.63 101.372 197.313C100.734 197.469 100.079 197.55 99.4213 197.552ZM96.8696 196.667C98.277 197.211 99.8188 197.302 101.28 196.926C103.485 196.391 140.917 156.52 160.4 135.517C160.421 135.494 160.447 135.477 160.474 135.467C160.503 135.455 160.533 135.451 160.564 135.453C160.593 135.455 160.622 135.465 160.647 135.48C160.673 135.495 160.694 135.516 160.712 135.541C160.763 135.613 165.592 142.838 170.545 151.049C175.33 158.984 203.295 170.221 205.054 170.923C208.747 168.912 212.174 166.445 215.254 163.582C219.64 159.399 220.178 152.256 220.234 151.264L199.223 138.659C199.198 138.642 199.175 138.621 199.159 138.595C199.143 138.57 199.132 138.542 199.127 138.512C199.127 138.468 198.598 133.882 192.939 112.281C187.281 90.68 168.638 76.5198 168.419 76.3566L164.507 73.4612L129.62 84.5628L131.215 97.1918C131.218 97.2225 131.215 97.2532 131.204 97.282C131.193 97.3108 131.177 97.3377 131.155 97.3598C111.097 116.986 74.2997 153.078 68.5501 158.992C73.0555 157.692 84.3289 165.715 90.8484 172.549C98.6245 180.684 101.782 191.184 101.815 191.291C101.824 191.324 101.825 191.36 101.817 191.393C101.808 191.427 101.791 191.458 101.767 191.482L96.8696 196.667Z" fill="#3B7CD3"/>
<path d="M160.547 135.645L139.094 102.44L157.636 138.775L160.547 135.645Z" fill="#3B7CD3"/>
<path d="M212.351 163.921C212.31 163.92 212.272 163.907 212.239 163.884C212.032 163.745 191.384 149.853 183.245 144.119C175.107 138.384 155.331 81.3538 154.479 78.9288C154.462 78.8789 154.466 78.8251 154.489 78.7781C154.512 78.7311 154.553 78.6955 154.602 78.6783C154.653 78.661 154.707 78.6648 154.755 78.6879C154.803 78.7109 154.839 78.7512 154.857 78.8011C155.061 79.3916 175.394 138.097 183.476 143.799C191.56 149.501 212.255 163.423 212.462 163.562C212.506 163.592 212.537 163.638 212.547 163.69C212.558 163.742 212.547 163.796 212.518 163.841C212.498 163.866 212.473 163.887 212.444 163.901C212.415 163.914 212.382 163.922 212.351 163.921Z" fill="#3B7CD3"/>
<path d="M159.492 97.4862C156.277 97.4344 153.116 96.6606 150.241 95.2216C144.26 92.3185 145.308 83.8732 145.321 83.7849C145.327 83.7331 145.354 83.6851 145.396 83.6534C145.439 83.6208 145.491 83.6073 145.543 83.614C145.595 83.6217 145.642 83.6496 145.674 83.6908C145.705 83.7321 145.721 83.7849 145.715 83.8368C145.715 83.9212 144.702 92.0871 150.416 94.8625C156.206 97.6783 160.74 97.0283 160.784 97.0197C160.837 97.012 160.891 97.0254 160.933 97.0571C160.976 97.0888 161.005 97.1368 161.013 97.1896C161.022 97.2424 161.008 97.2962 160.976 97.3394C160.944 97.3826 160.897 97.4114 160.844 97.419C160.395 97.4699 159.943 97.492 159.492 97.4862Z" fill="#3B7CD3"/>
<path d="M171.434 78.5029L168.738 76.3457C166.141 76.3121 163.549 76.5608 161.006 77.0868C158.617 77.5553 156.273 78.236 154.004 79.1211C151.432 80.1186 148.985 81.4108 146.711 82.9727C140.912 87.0624 135.636 91.8461 131 97.2164L130.102 96.4187L128.508 95.0036L119.95 87.3945L117.749 85.4332C116.067 85.3142 114.418 84.91 112.872 84.237C111.126 83.518 109.5 82.5397 108.047 81.334C103.19 77.3259 101.085 75.1726 101.085 75.1726C101.085 75.1726 99.837 67.0662 100.778 61.5039C100.861 61.0056 100.965 60.5228 101.085 60.0764C101.339 59.1509 101.583 58.3579 101.815 57.684C101.998 57.1454 102.178 56.6789 102.345 56.2728C102.539 55.7985 102.757 55.3339 102.998 54.8808C103.199 54.4545 103.479 54.0715 103.824 53.7518C103.824 53.7518 107.864 57.9067 111.109 54.5256C114.355 51.1444 112.911 45.8163 112.911 45.8163C112.911 45.8163 114.207 44.0422 122.754 43.1244C131.299 42.2076 140.466 42.1318 144.937 42.6703L145.622 42.7702C146.293 42.8681 146.959 43.0006 147.616 43.1686C150.467 43.8828 152.162 44.983 152.525 45.4179C152.592 45.4745 152.645 45.5446 152.683 45.6243C152.719 45.704 152.739 45.7904 152.739 45.8787C152.739 45.967 152.719 46.0534 152.683 46.1331C152.645 46.2128 152.592 46.2829 152.525 46.3395L150.643 45.8173C150.643 45.8173 150.818 46.3558 151.073 47.241C151.802 49.7293 152.378 52.259 152.8 54.8174C153.058 56.3381 153.135 57.8846 153.027 59.4235C152.924 60.421 152.839 61.286 152.76 62.0357C152.477 64.7833 152.333 65.9718 152.333 65.9718L153.234 66.3702C157.018 68.0646 171.458 74.6926 172.128 77.3681C172.502 78.8475 171.434 78.5048 171.434 78.5048V78.5029Z" fill="#92C1FF"/>
<path d="M131.001 97.4159C130.952 97.4159 130.906 97.3996 130.868 97.3679L117.657 85.6279C115.978 85.5021 114.332 85.0979 112.785 84.4317C111.02 83.7059 109.375 82.7161 107.908 81.4969C103.123 77.533 100.954 75.3442 100.934 75.324C100.902 75.2952 100.882 75.2559 100.878 75.2127C100.878 75.133 99.6341 67.0103 100.567 61.4835C100.658 60.9651 100.762 60.4784 100.882 60.0358C101.133 59.1142 101.38 58.3049 101.616 57.6434C101.784 57.1529 101.958 56.6863 102.15 56.2197C102.343 55.7368 102.564 55.2655 102.812 54.8085C103.025 54.3554 103.326 53.9483 103.697 53.6123C103.736 53.5864 103.783 53.5749 103.83 53.5797C103.876 53.5845 103.92 53.6066 103.952 53.6402C103.972 53.6402 105.966 55.6773 108.199 55.6773C108.719 55.6687 109.231 55.5516 109.704 55.3336C110.176 55.1157 110.597 54.8028 110.943 54.413C114.073 51.1509 112.71 45.9437 112.697 45.8919C112.689 45.8631 112.687 45.8324 112.693 45.8026C112.699 45.7729 112.711 45.745 112.729 45.721C112.781 45.6452 114.173 43.8624 122.698 42.9495C131.742 41.9846 140.722 41.9923 144.925 42.4992C145.164 42.5271 145.391 42.5587 145.619 42.5952C146.289 42.6951 146.959 42.8304 147.613 42.9936C150.575 43.7395 152.27 44.88 152.625 45.314C152.711 45.4042 152.778 45.5117 152.819 45.6289C152.861 45.746 152.877 45.8717 152.868 45.9956C152.842 46.201 152.735 46.3892 152.573 46.5178C152.549 46.537 152.521 46.5495 152.492 46.5553C152.462 46.561 152.431 46.5591 152.401 46.5505L150.87 46.1242C150.946 46.3757 151.058 46.7425 151.194 47.2052C151.924 49.7089 152.502 52.2549 152.925 54.8296C153.191 56.3484 153.276 57.893 153.175 59.431L153.092 60.2681C153.028 60.9219 152.968 61.5123 152.912 62.0422C152.685 64.2272 152.549 65.4397 152.514 65.8343L153.283 66.1732C157.565 68.0951 171.602 74.5704 172.288 77.3065C172.435 77.9084 172.388 78.3308 172.136 78.5622C172.025 78.6486 171.893 78.7062 171.754 78.7302C171.616 78.7542 171.473 78.7446 171.339 78.7014C171.316 78.6946 171.293 78.6822 171.275 78.6658L168.631 76.5528C166.072 76.5298 163.518 76.7775 161.011 77.2901C158.634 77.7557 156.302 78.4326 154.045 79.3119C151.485 80.3036 149.049 81.5891 146.787 83.1443C137.851 89.3287 131.216 97.2642 131.156 97.3439C131.139 97.365 131.118 97.3823 131.094 97.3948C131.07 97.4072 131.043 97.414 131.016 97.4159H131.001ZM101.277 75.085C101.608 75.4162 103.769 77.5493 108.175 81.1859C109.616 82.3801 111.229 83.3497 112.96 84.0611C114.486 84.7139 116.11 85.1056 117.765 85.2218C117.813 85.2227 117.858 85.241 117.893 85.2736L130.988 96.9215C131.973 95.7647 138.285 88.5271 146.608 82.7929C148.897 81.2291 151.359 79.934 153.945 78.9327C156.224 78.0457 158.578 77.3621 160.979 76.8917C163.539 76.3647 166.149 76.1151 168.763 76.1458C168.804 76.1506 168.844 76.166 168.878 76.19L171.538 78.3193C171.601 78.3385 171.667 78.3433 171.732 78.3337C171.796 78.3241 171.859 78.3001 171.913 78.2636C172.044 78.1397 172.057 77.8325 171.949 77.3977C171.427 75.372 161.92 70.4472 153.147 66.5313C152.573 66.2721 152.246 66.1328 152.246 66.1328C152.207 66.1156 152.175 66.0858 152.155 66.0484C152.133 66.0109 152.125 65.9677 152.131 65.9255C152.131 65.9255 152.274 64.7091 152.557 61.9933C152.613 61.4633 152.669 60.8729 152.736 60.2192L152.821 59.382C152.914 57.8767 152.831 56.3657 152.573 54.8805C152.152 52.323 151.577 49.7924 150.851 47.3041C150.596 46.4266 150.424 45.8842 150.424 45.8842C150.412 45.8506 150.41 45.8132 150.418 45.7786C150.426 45.7441 150.443 45.7114 150.468 45.6855C150.494 45.6605 150.525 45.6423 150.56 45.6317C150.596 45.6221 150.632 45.6212 150.668 45.6298L152.434 46.1242C152.476 46.0695 152.503 46.0052 152.514 45.937C152.514 45.8669 152.501 45.7969 152.474 45.7316C152.447 45.6663 152.408 45.6077 152.358 45.5578C152.043 45.1594 150.396 44.0861 147.572 43.3728C146.935 43.2135 146.273 43.0819 145.611 42.9744C145.387 42.9399 145.16 42.9082 144.929 42.8784C140.75 42.3763 131.806 42.3715 122.794 43.3325C115.413 44.1303 113.487 45.5655 113.148 45.8804C113.332 46.6782 114.3 51.5233 111.269 54.6732C110.888 55.1023 110.423 55.4469 109.901 55.686C109.378 55.925 108.813 56.0527 108.239 56.0604C106.165 56.0604 104.359 54.5167 103.852 54.0386C103.602 54.3275 103.385 54.6444 103.206 54.9842C102.967 55.4296 102.751 55.8876 102.56 56.3561C102.373 56.8149 102.202 57.2729 102.038 57.7558C101.803 58.4297 101.56 59.2275 101.312 60.1481C101.193 60.5792 101.093 61.0534 101.006 61.5555C100.112 66.7636 101.165 74.3275 101.277 75.0975V75.085Z" fill="#3B7CD3"/>
<path d="M141.734 60.2025L152.333 65.9492L152.787 61.7702L141.734 60.2035V60.2025Z" fill="#3B7CD3"/>
<path d="M109.216 74.0439L117.753 85.4325L115.202 85.0216L109.216 74.0439Z" fill="#3B7CD3"/>
<path d="M150.46 45.8839L152.401 46.3543C152.401 46.3543 153.881 45.7437 151.473 44.6675C149.79 43.9139 150.46 45.8839 150.46 45.8839Z" fill="#3B7CD3"/>
<path d="M168.539 76.19C168.539 76.19 170.796 78.6342 171.434 78.5027C172.071 78.3711 172.574 77.8489 171.864 76.8274C171.227 75.9106 168.539 76.19 168.539 76.19Z" fill="#3B7CD3"/>
<path d="M96.4714 196.738C96.4714 196.738 99.9448 197.966 101.328 197.136C103.841 195.594 101.656 190.908 101.656 190.908L96.4714 196.738Z" fill="#3B7CD3"/>
<path d="M67.4613 159.674C67.3595 160 67.3326 160.345 67.3826 160.683C67.4325 161.02 67.5592 161.342 67.7522 161.624L68.4146 162.684L72.0434 159.47C71.3061 159.216 70.5343 159.074 69.7548 159.048C68.9695 159.172 68.2015 159.382 67.4622 159.674H67.4613Z" fill="#3B7CD3"/>
<path d="M147.409 43.3837C146.765 43.3895 146.129 43.2531 145.543 42.9853C145.5 42.9642 145.466 42.9287 145.447 42.8845C145.428 42.8403 145.425 42.7914 145.439 42.7453C145.453 42.6992 145.483 42.6598 145.523 42.6339C145.563 42.608 145.611 42.5984 145.659 42.6061C146.333 42.7098 147.006 42.8413 147.652 43.0045C147.699 43.016 147.742 43.0439 147.769 43.0832C147.797 43.1226 147.81 43.1715 147.804 43.2195C147.799 43.2666 147.777 43.3107 147.743 43.3434C147.709 43.376 147.664 43.3962 147.617 43.3991L147.409 43.3827V43.3837Z" fill="#3B7CD3"/>
<path d="M122.538 52.0764C121.453 52.0783 120.406 51.6751 119.601 50.9465C118.798 50.2178 118.294 49.2146 118.189 48.1346C118.085 47.0546 118.386 45.9736 119.036 45.1038C119.685 44.234 120.635 43.6379 121.701 43.4315C122.548 43.2635 123.425 43.3499 124.223 43.6811C125.02 44.0113 125.701 44.572 126.18 45.29C126.66 46.0081 126.914 46.852 126.914 47.715C126.913 48.5781 126.656 49.4219 126.175 50.1391C125.856 50.6172 125.445 51.0281 124.966 51.3449C124.487 51.6617 123.948 51.8815 123.384 51.989C123.106 52.0476 122.822 52.0764 122.538 52.0764ZM122.538 43.7463C122.27 43.7444 122.003 43.7703 121.741 43.8222C121.102 43.9499 120.504 44.2321 120.001 44.6459C119.497 45.0596 119.102 45.5905 118.854 46.1925C118.604 46.7944 118.507 47.4491 118.57 48.0971C118.634 48.7461 118.857 49.3682 119.218 49.9106C119.58 50.452 120.07 50.8965 120.644 51.2047C121.219 51.5119 121.86 51.6732 122.512 51.6741C123.163 51.6741 123.805 51.5148 124.38 51.2076C124.955 50.9004 125.446 50.4568 125.808 49.9164C126.206 49.3202 126.435 48.6271 126.47 47.9109C126.506 47.1947 126.347 46.4824 126.01 45.8497C125.672 45.2171 125.17 44.6872 124.556 44.3176C123.942 43.947 123.239 43.7502 122.523 43.7473H122.538V43.7463Z" fill="#3B7CD3"/>
<path d="M139.867 54.6369C139.08 54.6341 138.307 54.4181 137.632 54.011C136.957 53.6049 136.404 53.0232 136.034 52.3271C135.663 51.6321 135.488 50.8497 135.525 50.0625C135.563 49.2753 135.814 48.513 136.251 47.8573C136.565 47.3716 136.973 46.9539 137.451 46.6266C137.928 46.3002 138.465 46.0717 139.033 45.9555C139.599 45.8384 140.183 45.8355 140.751 45.9469C141.319 46.0583 141.859 46.281 142.339 46.6026C142.82 46.9242 143.232 47.3389 143.552 47.8208C143.87 48.3037 144.09 48.8442 144.199 49.4125C144.306 49.9809 144.3 50.5655 144.18 51.131C144.06 51.6974 143.829 52.2331 143.5 52.7092C143.181 53.1883 142.77 53.5982 142.291 53.9169C141.812 54.2357 141.274 54.4555 140.709 54.563C140.432 54.6129 140.149 54.6369 139.867 54.635V54.6369ZM139.867 46.3107C139.185 46.3146 138.513 46.4951 137.92 46.8339C137.327 47.1728 136.832 47.6605 136.483 48.2471C136.134 48.8346 135.942 49.5018 135.926 50.1854C135.911 50.8689 136.072 51.5438 136.395 52.1467C136.718 52.7486 137.191 53.2574 137.769 53.6232C138.345 53.9889 139.007 54.1992 139.69 54.2337C140.372 54.2683 141.052 54.1253 141.663 53.82C142.274 53.5137 142.795 53.0558 143.177 52.4884C143.577 51.8923 143.807 51.1991 143.843 50.482C143.879 49.7649 143.72 49.0516 143.382 48.4189C143.044 47.7853 142.54 47.2564 141.924 46.8877C141.309 46.5181 140.605 46.3232 139.887 46.3242L139.867 46.3127V46.3107Z" fill="#3B7CD3"/>
<path d="M149.463 68.9355C148.675 68.9326 147.903 68.7166 147.228 68.3105C146.552 67.9035 146 67.3217 145.629 66.6266C145.258 65.9316 145.082 65.1492 145.121 64.362C145.159 63.5748 145.41 62.8125 145.846 62.1568C145.861 62.1347 145.88 62.1165 145.902 62.1021C145.924 62.0877 145.949 62.0781 145.975 62.0723C146.001 62.0675 146.028 62.0675 146.054 62.0733C146.079 62.0791 146.104 62.0896 146.125 62.105C146.147 62.1194 146.166 62.1376 146.181 62.1597C146.195 62.1818 146.205 62.2058 146.209 62.2317C146.214 62.2576 146.214 62.2835 146.208 62.3095C146.203 62.3354 146.192 62.3594 146.177 62.3805C145.593 63.2541 145.38 64.3245 145.584 65.3565C145.79 66.3876 146.396 67.2958 147.27 67.8795C148.144 68.4641 149.214 68.6772 150.245 68.4718C151.276 68.2673 152.184 67.6606 152.769 66.787C152.844 66.6718 152.912 66.5633 152.968 66.4596L152.255 66.1447C152.215 66.1274 152.183 66.0977 152.162 66.0602C152.141 66.0228 152.134 65.9796 152.138 65.9374C152.138 65.9374 152.282 64.721 152.566 62.0061C152.57 61.9533 152.596 61.9043 152.638 61.8707C152.679 61.8371 152.732 61.8208 152.784 61.8266C152.837 61.8323 152.886 61.8583 152.92 61.8986C152.953 61.9389 152.97 61.9927 152.964 62.0455C152.736 64.2305 152.601 65.4429 152.566 65.8375L153.335 66.1764C153.383 66.1985 153.419 66.2388 153.437 66.2878C153.456 66.3367 153.456 66.3914 153.434 66.4394C153.345 66.6382 153.239 66.8292 153.116 67.0097C152.796 67.4887 152.385 67.8987 151.906 68.2164C151.427 68.5352 150.889 68.755 150.324 68.8635C150.04 68.9153 149.752 68.9393 149.463 68.9355Z" fill="#3B7CD3"/>
<path d="M114.415 64.2071C113.443 64.2052 112.499 63.8788 111.734 63.2788C110.968 62.6787 110.425 61.8407 110.191 60.897C109.956 59.9533 110.043 58.9587 110.439 58.0697C110.835 57.1817 111.516 56.4511 112.374 55.9942C113.232 55.5372 114.219 55.3797 115.176 55.5478C116.134 55.7158 117.009 56.1986 117.661 56.9196C118.313 57.6406 118.705 58.5593 118.775 59.5299C118.845 60.5005 118.589 61.4653 118.048 62.2736C117.648 62.8698 117.108 63.3584 116.474 63.6954C115.841 64.0324 115.133 64.209 114.415 64.2071ZM114.415 55.8847C113.73 55.8838 113.056 56.0604 112.46 56.3974C111.863 56.7343 111.364 57.2201 111.012 57.8067C110.658 58.3942 110.464 59.0624 110.446 59.7478C110.429 60.4333 110.589 61.1101 110.912 61.7149C111.234 62.3197 111.708 62.8295 112.287 63.1962C112.865 63.5629 113.529 63.7732 114.213 63.8077C114.898 63.8413 115.579 63.6973 116.191 63.3892C116.803 63.081 117.325 62.6192 117.705 62.0499C118.105 61.4538 118.335 60.7606 118.371 60.0435C118.407 59.3264 118.247 58.614 117.909 57.9804C117.571 57.3468 117.068 56.8179 116.453 56.4492C115.838 56.0806 115.133 55.8847 114.415 55.8857V55.8847Z" fill="#3B7CD3"/>
<path d="M131.741 66.7896C130.881 66.7915 130.039 66.5361 129.325 66.0561C128.608 65.5761 128.049 64.8945 127.719 64.0967C127.389 63.299 127.304 62.4215 127.473 61.5757C127.642 60.729 128.059 59.9524 128.669 59.3427C129.28 58.7331 130.058 58.3184 130.904 58.1514C131.751 57.9843 132.628 58.0717 133.425 58.4029C134.222 58.7341 134.903 59.2938 135.382 60.0128C135.86 60.7309 136.114 61.5748 136.113 62.4378C136.113 63.3009 135.855 64.1438 135.374 64.8609C134.975 65.4571 134.433 65.9448 133.799 66.2817C133.166 66.6187 132.459 66.7934 131.741 66.7915V66.7896ZM131.741 58.4672C130.791 58.4653 129.871 58.8051 129.15 59.4253C128.429 60.0445 127.955 60.9028 127.814 61.8436C127.673 62.7834 127.874 63.7434 128.381 64.547C128.889 65.3515 129.669 65.9457 130.578 66.2232C131.487 66.5006 132.466 66.4411 133.335 66.0571C134.205 65.6731 134.907 64.9895 135.314 64.1303C135.722 63.2711 135.808 62.2948 135.554 61.378C135.302 60.4612 134.729 59.6663 133.939 59.1373C133.294 58.7024 132.535 58.4701 131.758 58.4672H131.741Z" fill="#3B7CD3"/>
<path d="M141.335 81.0814C140.209 81.0805 139.126 80.6465 138.312 79.8689C137.497 79.0923 137.012 78.0315 136.959 76.9063C136.904 75.7821 137.284 74.6791 138.02 73.8276C138.757 72.9751 139.793 72.4394 140.913 72.3299C142.034 72.2205 143.154 72.5459 144.041 73.2391C144.928 73.9332 145.514 74.9412 145.679 76.0548C145.843 77.1684 145.573 78.3031 144.924 79.2238C144.275 80.1435 143.298 80.779 142.193 80.9979C141.91 81.0536 141.623 81.0814 141.335 81.0814ZM141.335 72.7514C141.067 72.7514 140.801 72.7783 140.537 72.8311C139.898 72.9578 139.3 73.241 138.796 73.6538C138.291 74.0676 137.897 74.5985 137.647 75.2013C137.397 75.8033 137.3 76.458 137.364 77.107C137.428 77.7559 137.651 78.379 138.013 78.9204C138.375 79.4628 138.865 79.9073 139.44 80.2145C140.015 80.5217 140.657 80.683 141.309 80.683C141.961 80.683 142.602 80.5217 143.178 80.2145C143.753 79.9073 144.243 79.4628 144.605 78.9204C144.996 78.3223 145.219 77.6302 145.251 76.9169C145.283 76.2036 145.123 75.4941 144.787 74.8644C144.45 74.2336 143.952 73.7047 143.342 73.3332C142.732 72.9616 142.033 72.761 141.319 72.7514H141.335Z" fill="#3B7CD3"/>
<path d="M154.004 79.3199C153.974 79.3199 153.946 79.3112 153.919 79.2978C153.892 79.2844 153.869 79.2652 153.851 79.2412C153.832 79.2181 153.82 79.1903 153.813 79.1615C153.806 79.1317 153.806 79.102 153.813 79.0732C153.93 78.5499 154.143 78.0536 154.443 77.6091C155.091 76.653 156.09 75.9905 157.224 75.7669C158.357 75.5432 159.533 75.7755 160.496 76.413C160.728 76.5723 160.945 76.7509 161.146 76.9477C161.172 76.9726 161.19 77.0053 161.2 77.0398C161.208 77.0754 161.208 77.1119 161.198 77.1464C161.188 77.181 161.168 77.2117 161.141 77.2357C161.114 77.2597 161.081 77.276 161.047 77.2827C158.669 77.7474 156.337 78.4242 154.08 79.3045C154.056 79.3132 154.03 79.3189 154.004 79.3199ZM158.076 76.0741C157.423 76.0731 156.781 76.2325 156.205 76.5397C155.629 76.8459 155.137 77.2904 154.774 77.8328C154.573 78.1285 154.415 78.4511 154.304 78.79C156.344 78.0162 158.442 77.4066 160.58 76.9678C160.48 76.8872 160.377 76.8123 160.273 76.7403C159.622 76.3054 158.858 76.0731 158.076 76.0741Z" fill="#3B7CD3"/>
<path d="M101.823 57.8984C101.792 57.9003 101.762 57.8927 101.736 57.8783C101.69 57.8581 101.655 57.8216 101.636 57.7765C101.616 57.7314 101.616 57.6805 101.632 57.6344C101.799 57.1439 101.975 56.6773 102.166 56.2107C102.185 56.1656 102.219 56.1282 102.264 56.107C102.308 56.0859 102.358 56.0811 102.406 56.0946C102.453 56.109 102.493 56.1397 102.519 56.181C102.544 56.2232 102.553 56.2731 102.545 56.3211C102.456 56.8453 102.268 57.3474 101.991 57.8005C101.974 57.8293 101.949 57.8533 101.919 57.8706C101.89 57.8869 101.856 57.8965 101.823 57.8965V57.8984Z" fill="#3B7CD3"/>
<path d="M107.235 74.9729C106.262 74.97 105.318 74.6436 104.553 74.0436C103.788 73.4446 103.245 72.6065 103.01 71.6628C102.776 70.7191 102.864 69.7245 103.259 68.8365C103.654 67.9485 104.334 67.2179 105.193 66.7609C106.051 66.304 107.037 66.1465 107.994 66.3136C108.952 66.4806 109.827 66.9626 110.478 67.6835C111.131 68.4045 111.524 69.3232 111.595 70.2919C111.666 71.2615 111.412 72.2273 110.871 73.0356C110.551 73.5137 110.14 73.9246 109.661 74.2423C109.182 74.5611 108.645 74.7809 108.079 74.8894C107.801 74.9451 107.518 74.9729 107.235 74.9739V74.9729ZM107.254 66.6429C106.987 66.6409 106.719 66.6669 106.457 66.7187C105.689 66.8723 104.984 67.2496 104.43 67.8035C103.877 68.3575 103.5 69.0621 103.347 69.8301C103.194 70.5972 103.272 71.393 103.57 72.1169C103.869 72.8407 104.375 73.4599 105.025 73.8958C105.458 74.1857 105.943 74.3873 106.453 74.4891C106.964 74.5908 107.489 74.5918 108 74.491C108.51 74.3892 108.996 74.1886 109.429 73.8996C109.862 73.6116 110.235 73.2401 110.524 72.8071C111.102 71.9316 111.312 70.8631 111.107 69.833C110.903 68.8039 110.301 67.8966 109.431 67.3082C108.79 66.8685 108.031 66.6294 107.254 66.6227V66.6429Z" fill="#3B7CD3"/>
<path d="M124.559 77.5251C123.434 77.5242 122.351 77.0902 121.536 76.3126C120.722 75.536 120.237 74.4752 120.183 73.35C120.129 72.2258 120.509 71.1228 121.245 70.2713C121.982 69.4188 123.016 68.8831 124.138 68.7736C125.258 68.6642 126.378 68.9896 127.265 69.6828C128.153 70.3759 128.739 71.3849 128.903 72.4985C129.067 73.6121 128.798 74.7468 128.149 75.6665C127.5 76.5872 126.521 77.2227 125.416 77.4416C125.134 77.4973 124.847 77.5251 124.559 77.5251ZM124.579 69.1951C124.312 69.1951 124.045 69.222 123.782 69.2748C123.145 69.4053 122.55 69.6904 122.049 70.1052C121.549 70.5199 121.157 71.0517 120.91 71.6537C120.663 72.2546 120.568 72.9084 120.634 73.5555C120.699 74.2025 120.923 74.8236 121.285 75.3632C121.647 75.9037 122.135 76.3462 122.709 76.6534C123.282 76.9597 123.923 77.121 124.573 77.1219C125.223 77.1219 125.863 76.9635 126.438 76.6582C127.012 76.3529 127.502 75.9113 127.865 75.3718C128.256 74.7737 128.479 74.0825 128.511 73.3683C128.543 72.655 128.383 71.9465 128.047 71.3157C127.711 70.685 127.212 70.157 126.602 69.7855C125.993 69.413 125.294 69.2124 124.579 69.2028V69.1951Z" fill="#3B7CD3"/>
<path d="M100.782 61.7217C100.732 61.7217 100.684 61.7035 100.647 61.6699C100.621 61.6469 100.602 61.619 100.591 61.5864C100.58 61.5547 100.577 61.5201 100.583 61.4865C100.675 60.972 100.779 60.4852 100.898 60.0427C101.149 59.122 101.397 58.3118 101.632 57.6503C101.799 57.1598 101.975 56.6932 102.166 56.2266C102.36 55.7437 102.581 55.2724 102.828 54.8154C102.844 54.7866 102.867 54.7616 102.894 54.7444C102.921 54.7261 102.953 54.7156 102.986 54.7127C103.019 54.7098 103.052 54.7156 103.082 54.728C103.112 54.7415 103.138 54.7616 103.159 54.7876C103.738 55.5104 104.071 56.3985 104.11 57.3239C104.149 58.2494 103.891 59.1623 103.374 59.9313C102.777 60.8241 101.871 61.4654 100.83 61.7294L100.782 61.7217ZM103.032 55.2695C102.868 55.592 102.701 55.9597 102.532 56.362C102.365 56.7642 102.174 57.2788 102.01 57.7617C101.775 58.4356 101.532 59.2334 101.284 60.154C101.193 60.4929 101.11 60.8596 101.034 61.2465C101.851 60.9643 102.552 60.4209 103.028 59.699C103.472 59.0462 103.71 58.2743 103.711 57.4842C103.711 56.6941 103.475 55.9223 103.032 55.2685V55.2695Z" fill="#3B7CD3"/>
<path d="M134.158 91.813C133.476 91.8139 132.803 91.6555 132.192 91.3493C131.582 91.0431 131.052 90.5976 130.645 90.0494C130.239 89.5013 129.967 88.8648 129.851 88.1918C129.734 87.5188 129.779 86.8286 129.977 86.1758C130.177 85.523 130.527 84.9258 130.999 84.4334C131.471 83.9399 132.053 83.5645 132.696 83.337C133.34 83.1095 134.028 83.0365 134.705 83.1239C135.382 83.2103 136.029 83.4551 136.595 83.8372C137.551 84.4862 138.213 85.4846 138.437 86.6183C138.662 87.7512 138.429 88.9272 137.791 89.891C137.472 90.3691 137.06 90.78 136.581 91.0978C136.102 91.4165 135.565 91.6363 135 91.7448C134.722 91.7938 134.44 91.8168 134.158 91.813ZM134.158 83.4868C133.474 83.4868 132.8 83.6625 132.203 83.9985C131.606 84.3354 131.107 84.8212 130.755 85.4087C130.402 85.9963 130.207 86.6644 130.189 87.3499C130.172 88.0344 130.332 88.7121 130.655 89.316C130.978 89.9208 131.451 90.4315 132.03 90.7982C132.609 91.165 133.272 91.3752 133.956 91.4088C134.641 91.4434 135.323 91.2984 135.934 90.9903C136.546 90.683 137.068 90.2213 137.448 89.651C137.847 89.0558 138.078 88.3617 138.114 87.6456C138.15 86.9284 137.99 86.2151 137.653 85.5825C137.315 84.9489 136.812 84.4199 136.196 84.0503C135.58 83.6817 134.876 83.4868 134.158 83.4868Z" fill="#3B7CD3"/>
<path d="M152.777 55.0353H152.749C152.014 54.9364 151.318 54.6522 150.725 54.2087C150.132 53.7661 149.661 53.1786 149.358 52.5037C149.055 51.8279 148.929 51.0867 148.991 50.3494C149.055 49.6121 149.304 48.9027 149.718 48.2883C150.037 47.8035 150.453 47.3897 150.938 47.0719C150.964 47.0547 150.995 47.0441 151.026 47.0412C151.056 47.0383 151.088 47.0412 151.118 47.0518C151.147 47.0633 151.173 47.0806 151.195 47.1036C151.216 47.1267 151.232 47.1536 151.242 47.1833C151.972 49.687 152.55 52.233 152.972 54.8077C152.977 54.8375 152.975 54.8692 152.967 54.898C152.958 54.9268 152.942 54.9537 152.92 54.9757C152.882 55.0142 152.83 55.0353 152.777 55.0353ZM150.934 47.5625C150.589 47.8265 150.289 48.1452 150.049 48.5081C149.686 49.0467 149.462 49.6669 149.395 50.3139C149.328 50.96 149.422 51.6128 149.668 52.2147C149.915 52.8167 150.305 53.3476 150.806 53.7623C151.306 54.177 151.9 54.4621 152.538 54.5927C152.134 52.2253 151.599 49.8819 150.934 47.574V47.5625Z" fill="#3B7CD3"/>
<path d="M119.954 87.59C119.906 87.59 119.859 87.5737 119.823 87.542L117.621 85.5807C117.597 85.5643 117.578 85.5432 117.564 85.5192C117.548 85.4952 117.539 85.4683 117.536 85.4395C117.532 85.4117 117.535 85.3829 117.544 85.356C117.551 85.3291 117.566 85.3042 117.585 85.2831C117.604 85.2619 117.627 85.2447 117.653 85.2331C117.679 85.2216 117.707 85.2159 117.736 85.2159C117.763 85.2168 117.791 85.2226 117.817 85.2341C117.843 85.2466 117.866 85.2639 117.884 85.285L119.946 87.1196C120.092 86.9669 120.226 86.8028 120.345 86.629C120.923 85.7535 121.132 84.685 120.928 83.6549C120.723 82.6257 120.121 81.7185 119.252 81.13C117.354 79.858 115.125 80.2007 113.961 81.9278C113.931 81.972 113.885 82.0017 113.833 82.0123C113.781 82.0219 113.728 82.0123 113.683 81.9816C113.639 81.9518 113.609 81.9057 113.599 81.8539C113.589 81.802 113.6 81.7483 113.63 81.7041C114.922 79.7745 117.382 79.3876 119.475 80.7873C120.432 81.4353 121.094 82.4347 121.317 83.5675C121.542 84.7013 121.31 85.8773 120.671 86.8402C120.508 87.0888 120.319 87.3192 120.106 87.5266C120.086 87.5468 120.063 87.5631 120.037 87.5737C120.011 87.5852 119.982 87.5909 119.954 87.59Z" fill="#3B7CD3"/>
<path d="M117.753 85.6327C116.047 85.5223 114.372 85.1182 112.804 84.4356C112.756 84.4155 112.717 84.3771 112.697 84.3281C112.677 84.2801 112.677 84.2254 112.696 84.1764C112.706 84.1524 112.72 84.1303 112.738 84.1121C112.757 84.0929 112.779 84.0785 112.803 84.0679C112.828 84.0583 112.854 84.0526 112.88 84.0535C112.905 84.0535 112.931 84.0583 112.955 84.0689C114.481 84.7217 116.105 85.1143 117.76 85.2295C117.814 85.2295 117.864 85.2507 117.901 85.2881C117.939 85.3255 117.96 85.3764 117.96 85.4292C117.96 85.482 117.939 85.5329 117.901 85.5704C117.864 85.6068 117.814 85.628 117.76 85.628L117.753 85.6327Z" fill="#3B7CD3"/>
<path d="M130.102 96.6171C130.078 96.6171 130.054 96.6133 130.031 96.6046C130.008 96.595 129.988 96.5825 129.97 96.5653L128.375 95.1531C128.34 95.1214 128.318 95.0772 128.312 95.0302C128.307 94.9822 128.317 94.9342 128.343 94.8939C128.369 94.8536 128.408 94.8238 128.455 94.8104C128.501 94.7969 128.551 94.8017 128.595 94.8228C128.755 94.8996 128.909 94.987 129.057 95.0859C129.533 95.4104 129.941 95.826 130.253 96.3099C130.28 96.3502 130.292 96.3982 130.285 96.4462C130.278 96.4942 130.254 96.5384 130.217 96.5691C130.184 96.5969 130.144 96.6133 130.102 96.6171Z" fill="#3B7CD3"/>
<path d="M227.265 151.535C227.265 151.535 230.135 149.968 233.075 150.379C236.013 150.79 239.889 155.786 240.185 164.958C240.479 174.129 240.475 190.108 236.089 193.405C230.77 197.349 214.46 199.574 203.706 196.46C192.951 193.346 198.478 187.125 198.478 187.125L223.923 174.42L227.265 151.535Z" fill="#5E96FC"/>
<path d="M215.462 198.111C211.307 198.111 207.167 197.66 203.63 196.635C199.83 195.534 197.601 193.923 196.999 191.85C196.269 189.318 198.228 187.065 198.311 186.985L198.371 186.937L223.727 174.264L227.089 151.384L227.177 151.34C227.297 151.272 230.14 149.744 233.107 150.144C235.949 150.542 240.085 155.383 240.392 164.897C240.922 181.427 239.511 191.053 236.197 193.512C232.592 196.217 223.995 198.111 215.462 198.111ZM198.582 187.268C198.367 187.528 196.752 189.557 197.386 191.734C197.948 193.672 200.089 195.195 203.766 196.252C214.473 199.354 230.698 197.145 235.973 193.229C238.179 191.594 240.663 185.362 240.009 164.945C239.71 155.654 235.771 150.941 233.07 150.562C230.511 150.203 227.967 151.399 227.488 151.651L224.127 174.536L224.035 174.584L198.582 187.268Z" fill="#3B7CD3"/>
<path d="M231.623 187.475C226.606 192.343 215.482 191.861 208.73 190.633C201.979 189.405 198.605 188.799 198.458 187.107C198.311 185.417 201.026 180.153 202.362 178.303C204.723 175.041 207.996 174.048 209.464 173.606C210.931 173.163 209.807 171.819 209.807 171.819C209.807 171.819 215.632 170.962 218.731 168.027C219.214 167.58 219.627 167.062 219.955 166.492C220.468 165.573 220.903 164.612 221.255 163.621C222.34 160.599 222.543 157.731 222.296 156.375V156.324C222.286 156.254 222.272 156.187 222.252 156.12V156.072C221.814 154.533 220.466 152.392 220.466 152.392C220.466 152.392 223.053 150.665 226.143 151.112C229.461 151.586 232.576 158.182 234.119 165.754C235.794 174.096 235.582 183.63 231.623 187.475Z" fill="#92C1FF"/>
<path d="M217.623 191.658C214.629 191.648 211.64 191.37 208.695 190.829L208.296 190.753C201.517 189.501 198.427 188.931 198.271 187.124C198.116 185.318 200.959 179.923 202.215 178.188C204.608 174.858 207.985 173.849 209.421 173.403C209.548 173.383 209.668 173.331 209.771 173.252C209.874 173.173 209.954 173.071 210.007 172.953C210.023 172.768 210 172.583 209.943 172.407C209.884 172.232 209.791 172.069 209.668 171.932C209.645 171.905 209.63 171.873 209.623 171.839C209.616 171.804 209.62 171.769 209.632 171.736C209.645 171.703 209.667 171.674 209.695 171.652C209.723 171.629 209.757 171.614 209.791 171.609C209.847 171.609 215.59 170.727 218.608 167.868C219.081 167.437 219.485 166.936 219.804 166.381C220.313 165.472 220.744 164.523 221.092 163.542C222.153 160.579 222.372 157.759 222.125 156.4V156.36C222.115 156.294 222.101 156.229 222.081 156.165V156.1C221.659 154.621 220.335 152.512 220.319 152.484C220.292 152.44 220.282 152.387 220.294 152.336C220.305 152.285 220.335 152.241 220.378 152.213C222.116 151.136 224.165 150.674 226.197 150.901C229.845 151.423 232.916 158.709 234.339 165.702C235.862 173.192 236.118 183.428 231.807 187.607C228.693 190.614 223.194 191.658 217.623 191.658ZM210.17 171.964C210.28 172.125 210.357 172.305 210.396 172.497C210.434 172.688 210.435 172.884 210.398 173.076C210.329 173.259 210.214 173.421 210.065 173.548C209.915 173.674 209.736 173.76 209.544 173.797C208.145 174.197 204.875 175.202 202.546 178.42C201.187 180.298 198.539 185.497 198.678 187.093C198.806 188.596 202.207 189.222 208.376 190.362L208.775 190.438C216.351 191.834 226.827 191.862 231.504 187.332C235.695 183.264 235.424 173.188 233.92 165.798C232.265 157.688 229.056 151.734 226.112 151.312C223.565 150.945 221.328 152.11 220.733 152.46C221.434 153.579 222.006 154.774 222.44 156.021V156.081C222.461 156.153 222.477 156.226 222.488 156.3V156.34C222.748 157.755 222.528 160.659 221.439 163.693C221.083 164.694 220.644 165.664 220.128 166.592C219.791 167.185 219.366 167.722 218.867 168.187C216.151 170.759 211.415 171.74 210.17 171.964Z" fill="#3B7CD3"/>
<path d="M234.095 165.756L228.911 164.695C224.341 163.749 222.655 157.804 222.316 156.392V156.341L222.271 156.137V156.089C221.833 154.55 220.485 152.408 220.485 152.408C220.485 152.408 223.073 150.682 226.163 151.129C229.437 151.587 232.551 158.183 234.095 165.756Z" fill="#3B7CD3"/>
<path d="M234.35 166.01L228.851 164.873C224.118 163.897 222.399 157.66 222.101 156.42L222.072 156.289C222.06 156.246 222.051 156.201 222.044 156.157V156.113C221.622 154.634 220.298 152.524 220.281 152.496L220.179 152.332L220.342 152.225C222.08 151.148 224.128 150.686 226.16 150.913C229.809 151.436 232.879 158.72 234.302 165.715L234.35 166.01ZM220.712 152.452C221.413 153.571 221.986 154.766 222.419 156.013V156.073C222.424 156.113 222.433 156.153 222.443 156.193L222.475 156.332C222.762 157.528 224.421 163.549 228.915 164.479L233.82 165.491C232.153 157.517 228.983 151.723 226.076 151.303C223.544 150.94 221.335 152.101 220.712 152.456V152.452Z" fill="#3B7CD3"/>
<path d="M222.009 171.848C220.366 171.681 219.309 169.619 218.731 168.028C219.214 167.581 219.627 167.063 219.955 166.493C220.468 165.574 220.903 164.613 221.255 163.621C222.133 166.002 224.19 172.072 222.009 171.848Z" fill="#3B7CD3"/>
<path d="M222.132 172.051C222.088 172.055 222.044 172.055 222.001 172.051C220.274 171.875 219.174 169.807 218.559 168.103L218.511 167.98L218.607 167.888C219.081 167.457 219.485 166.955 219.803 166.4C220.312 165.492 220.743 164.543 221.092 163.562L221.275 163.047L221.466 163.562C222.403 166.082 223.831 170.488 222.886 171.712C222.796 171.825 222.681 171.914 222.55 171.972C222.418 172.031 222.275 172.059 222.132 172.051ZM218.978 168.063C219.564 169.659 220.573 171.481 222.04 171.653C222.13 171.669 222.224 171.661 222.31 171.63C222.396 171.598 222.473 171.544 222.531 171.473C223.101 170.74 222.619 168.04 221.239 164.215C220.919 165.038 220.544 165.837 220.114 166.608C219.802 167.15 219.416 167.646 218.966 168.079L218.978 168.063Z" fill="#3B7CD3"/>
<path d="M223.297 179.675C223.297 179.651 222.818 177.37 217.874 175.029C212.929 172.689 209.563 173.781 209.531 173.793L209.4 173.419C209.54 173.371 212.897 172.222 218.041 174.667C223.185 177.111 223.671 179.508 223.692 179.607L223.297 179.675Z" fill="#3B7CD3"/>
<path d="M201.134 194.27H201.027C200.854 194.225 200.698 194.131 200.576 194C200.455 193.87 200.374 193.707 200.34 193.533C200.221 193.097 200.204 192.64 200.288 192.197C200.468 191.133 201.086 190.378 201.672 190.482C201.844 190.529 201.998 190.623 202.119 190.753C202.24 190.883 202.322 191.045 202.354 191.22C202.476 191.655 202.496 192.112 202.41 192.555C202.238 193.549 201.692 194.27 201.134 194.27ZM201.56 190.865C201.249 190.865 200.823 191.411 200.679 192.253C200.606 192.635 200.621 193.03 200.723 193.405C200.807 193.672 200.942 193.844 201.09 193.868C201.409 193.92 201.868 193.366 202.016 192.484C202.092 192.102 202.078 191.708 201.975 191.331C201.892 191.064 201.756 190.893 201.605 190.869L201.56 190.865Z" fill="#3B7CD3"/>
<path d="M215.413 196.364H215.297C215.126 196.317 214.971 196.222 214.851 196.09C214.73 195.96 214.649 195.797 214.616 195.623C214.494 195.188 214.475 194.73 214.56 194.286C214.743 193.225 215.358 192.476 215.948 192.576C216.119 192.623 216.275 192.716 216.395 192.846C216.516 192.977 216.597 193.139 216.63 193.314C216.75 193.749 216.769 194.206 216.685 194.649C216.617 195.097 216.447 195.523 216.187 195.893C216.104 196.027 215.99 196.138 215.856 196.221C215.722 196.302 215.57 196.351 215.413 196.364ZM215.836 192.959C215.521 192.959 215.099 193.501 214.955 194.346C214.881 194.728 214.894 195.122 214.995 195.499C215.078 195.766 215.214 195.937 215.365 195.961C215.517 195.985 215.701 195.873 215.868 195.647C216.089 195.327 216.233 194.961 216.291 194.577C216.366 194.195 216.351 193.801 216.251 193.425C216.167 193.158 216.032 192.986 215.88 192.962L215.836 192.959Z" fill="#3B7CD3"/>
<path d="M230.338 194.656C230.177 194.645 230.019 194.596 229.881 194.512C229.742 194.428 229.626 194.312 229.54 194.174C229.292 193.799 229.125 193.374 229.051 192.93C228.978 192.485 228.999 192.029 229.114 191.594C229.147 191.419 229.229 191.258 229.35 191.127C229.472 190.997 229.628 190.905 229.8 190.86C230.39 190.756 230.997 191.514 231.175 192.579C231.26 193.023 231.24 193.48 231.116 193.915C231.082 194.09 231 194.251 230.879 194.38C230.757 194.51 230.602 194.603 230.43 194.648C230.4 194.654 230.369 194.657 230.338 194.656ZM229.94 191.247H229.896C229.744 191.275 229.608 191.443 229.525 191.71C229.428 192.086 229.412 192.478 229.475 192.861C229.539 193.245 229.682 193.61 229.896 193.935C230.064 194.162 230.251 194.278 230.398 194.25C230.545 194.222 230.686 194.058 230.769 193.787C230.871 193.413 230.887 193.02 230.817 192.639C230.662 191.81 230.238 191.247 229.927 191.247H229.94Z" fill="#3B7CD3"/>
<path d="M237.721 183.527C237.462 183.527 237.204 183.492 236.955 183.423C235.99 183.173 235.36 182.571 235.512 182.025C235.662 181.478 236.492 181.255 237.458 181.51C238.423 181.766 239.052 182.364 238.901 182.91C238.797 183.304 238.33 183.527 237.721 183.527ZM236.703 181.805C236.265 181.805 235.946 181.94 235.906 182.124C235.834 182.395 236.305 182.842 237.062 183.038C237.821 183.232 238.45 183.077 238.522 182.806C238.593 182.535 238.123 182.088 237.362 181.892C237.147 181.836 236.926 181.807 236.703 181.805Z" fill="#3B7CD3"/>
<path d="M237.932 171.473H237.764C236.843 171.421 236.169 170.986 236.193 170.456C236.213 170.304 236.278 170.16 236.378 170.044C236.479 169.926 236.612 169.841 236.759 169.798C237.11 169.654 237.489 169.593 237.867 169.623C238.793 169.675 239.463 170.109 239.439 170.636C239.419 170.789 239.354 170.934 239.254 171.051C239.154 171.168 239.021 171.254 238.872 171.297C238.574 171.418 238.254 171.479 237.932 171.473ZM237.704 170.014C237.431 170.007 237.16 170.056 236.906 170.157C236.711 170.245 236.588 170.364 236.58 170.476C236.58 170.723 237.074 171.03 237.776 171.07C238.091 171.094 238.407 171.047 238.701 170.931C238.9 170.843 239.02 170.723 239.028 170.612C239.028 170.364 238.534 170.057 237.832 170.018H237.693L237.704 170.014Z" fill="#3B7CD3"/>
<path d="M236.684 161.129H236.516C235.591 161.077 234.921 160.643 234.945 160.116C234.969 159.59 235.695 159.231 236.619 159.283C237.541 159.335 238.215 159.77 238.187 160.296C238.167 160.448 238.103 160.592 238.004 160.71C237.904 160.827 237.772 160.914 237.624 160.958C237.326 161.078 237.005 161.136 236.684 161.129ZM236.452 159.674C235.822 159.674 235.356 159.905 235.343 160.132C235.332 160.36 235.838 160.69 236.54 160.727C236.856 160.75 237.173 160.703 237.469 160.587C237.665 160.499 237.788 160.383 237.796 160.272C237.796 160.021 237.302 159.714 236.6 159.677L236.452 159.674Z" fill="#3B7CD3"/>
<path d="M232.748 153.186H232.581C231.655 153.134 230.985 152.699 231.009 152.169C231.031 152.016 231.095 151.873 231.195 151.756C231.295 151.639 231.428 151.555 231.576 151.511C231.926 151.367 232.306 151.307 232.685 151.336C233.609 151.388 234.279 151.822 234.255 152.349C234.235 152.502 234.171 152.646 234.071 152.763C233.97 152.881 233.838 152.967 233.689 153.01C233.39 153.132 233.071 153.191 232.748 153.186ZM232.52 151.726C232.248 151.72 231.977 151.769 231.724 151.87C231.524 151.958 231.404 152.077 231.396 152.189C231.396 152.436 231.891 152.743 232.592 152.783C232.907 152.807 233.224 152.759 233.518 152.643C233.717 152.556 233.837 152.436 233.844 152.325C233.844 152.077 233.35 151.771 232.648 151.73L232.52 151.726Z" fill="#3B7CD3"/>
<path d="M7.41289 141.638C7.41289 141.638 4.82853 141.403 3.09858 143.126C2.05697 144.158 1.27072 145.418 0.80127 146.806L63.2512 229.88C63.2512 229.88 65.847 230.514 71.155 224.935C71.8788 224.148 72.5451 223.31 73.1489 222.427L81.7257 214.659L20.2444 138.776L7.41193 141.638H7.41289Z" fill="#5E96FC"/>
<path d="M63.5215 230.091C63.414 230.093 63.3075 230.084 63.2028 230.063L63.1308 230.043L63.0915 229.987L0.582031 146.85L0.609872 146.754C1.08604 145.331 1.88861 144.039 2.95423 142.982C4.64865 141.303 7.07365 141.411 7.39621 141.439L20.3199 138.556L20.3996 138.652L82.0037 214.683L73.307 222.559C72.7031 223.443 72.0369 224.282 71.313 225.071C66.9507 229.641 64.3788 230.091 63.5215 230.091ZM63.3583 229.693C63.7846 229.732 66.3248 229.721 71.0106 224.792C71.7345 224.014 72.4007 223.186 73.0036 222.311L73.0362 222.276L81.4738 214.635L20.1644 138.998L7.42405 141.838H7.39237C7.36837 141.838 4.88002 141.634 3.23743 143.265C2.25054 144.256 1.495 145.453 1.0246 146.77L63.3583 229.693Z" fill="#3B7CD3"/>
<path d="M89.2137 214.487C82.0597 219.642 73.3793 222.358 73.1594 222.423C73.2554 222.299 75.9828 218.474 59.8133 195.765C57.6389 192.713 55.5489 189.822 53.5444 187.092C40.3615 169.148 30.5559 157.887 21.5126 150.278C10.6625 141.159 7.41187 141.637 7.41187 141.637C7.41187 141.637 14.8645 130.073 27.7248 131.545C40.5852 133.016 58.8955 160.1 63.326 160.865C67.7565 161.632 68.5101 162.588 67.6288 163.382C67.2822 163.685 68.2624 164.542 69.9059 165.806C72.1466 167.54 75.6199 170.049 78.5825 172.984C79.0424 173.444 79.4869 173.91 79.915 174.383C83.4402 178.303 89.0265 187.942 92.2762 193.747C93.8314 196.539 94.8481 198.449 94.8481 198.449C94.8481 198.449 96.6903 196.814 97.8068 199.118C98.9233 201.423 96.4638 209.267 89.2137 214.487Z" fill="#92C1FF"/>
<path d="M73.1593 222.621C73.1276 222.622 73.0959 222.615 73.0671 222.6C73.0393 222.586 73.0143 222.564 72.9961 222.538C72.9721 222.503 72.9586 222.462 72.9586 222.42C72.9586 222.378 72.9721 222.337 72.9961 222.303C73.0239 222.266 75.6399 218.351 59.6413 195.881C57.5475 192.938 55.4384 190.023 53.3772 187.211C40.2538 169.347 30.3849 158.007 21.3723 150.43C10.8015 141.542 7.45588 141.837 7.41556 141.832C7.37812 141.838 7.33972 141.832 7.30612 141.816C7.27156 141.801 7.24276 141.775 7.2226 141.743C7.20244 141.711 7.19092 141.675 7.19092 141.637C7.19092 141.599 7.20148 141.562 7.22068 141.53C7.29652 141.41 14.8931 129.858 27.7285 131.345C35.999 132.306 46.4421 143.679 54.0703 151.986C58.2416 156.503 61.8301 160.403 63.3575 160.666C66.3441 161.181 67.9032 161.81 68.1422 162.597C68.1826 162.77 68.1691 162.954 68.1038 163.12C68.0386 163.287 67.9234 163.429 67.7755 163.53C67.7035 163.848 69.4661 165.204 70.044 165.647L71.2402 166.572C73.8726 168.501 76.3753 170.6 78.7331 172.856C79.1997 173.323 79.6509 173.797 80.0695 174.26C83.6378 178.224 89.3605 188.12 92.4546 193.664C93.7026 195.9 94.6118 197.591 94.9151 198.157C95.3826 197.806 95.9702 197.652 96.55 197.731C97.1404 197.846 97.6224 198.289 97.9891 199.043C99.1497 201.436 96.6777 209.355 89.3326 214.643C82.1143 219.826 73.3062 222.582 73.2188 222.618C73.1986 222.623 73.1785 222.625 73.1583 222.621H73.1593ZM7.76309 141.45C8.9199 141.586 12.7475 142.647 21.6199 150.123C30.6518 157.7 40.5409 169.088 53.6844 186.976C55.7504 189.768 57.8595 192.706 59.9572 195.65C73.5836 214.79 73.8783 220.584 73.4905 222.099C75.3011 221.501 82.794 218.85 89.0782 214.327C96.3916 209.059 98.5929 201.253 97.608 199.226C97.5139 198.966 97.3603 198.732 97.1596 198.54C96.959 198.35 96.7161 198.209 96.4511 198.13C95.6975 197.983 94.9679 198.612 94.9602 198.616C94.9372 198.636 94.9103 198.651 94.8815 198.66C94.8527 198.668 94.822 198.669 94.7922 198.664C94.7625 198.659 94.7346 198.647 94.7106 198.629C94.6857 198.611 94.6665 198.588 94.653 198.561C94.653 198.561 93.6201 196.619 92.085 193.863C88.9986 188.333 83.2922 178.467 79.7469 174.531C79.3485 174.073 78.8896 173.606 78.4269 173.143C76.0912 170.898 73.6114 168.808 71.0021 166.887L69.8059 165.966C67.9838 164.563 67.3934 163.972 67.3771 163.549C67.3742 163.489 67.3848 163.43 67.4088 163.374C67.4318 163.319 67.4683 163.27 67.5134 163.23C67.7246 163.043 67.8081 162.867 67.7649 162.708C67.6853 162.429 67.091 161.707 63.3105 161.061C61.6401 160.774 58.1859 157.014 53.8198 152.256C46.2433 143.998 35.8435 132.685 27.7208 131.745C16.2602 130.421 9.05527 139.668 7.78325 141.45H7.76309Z" fill="#3B7CD3"/>
<path d="M63.251 229.881C66.3154 227.635 54.9085 206.863 37.7741 183.486C20.6398 160.109 4.26483 142.978 1.20046 145.225C-1.8639 147.47 9.54299 168.242 26.6773 191.619C43.8117 214.997 60.1866 232.126 63.25 229.881H63.251Z" fill="#92C1FF"/>
<path d="M62.5777 230.274C60.0173 230.274 54.5107 225.09 50.0965 220.496C43.1825 213.263 34.8083 203.047 26.5176 191.734C18.2279 180.421 11.0057 169.359 6.18067 160.59C2.73902 154.323 -0.941678 146.539 1.07243 145.063C3.08654 143.588 9.40248 149.449 14.3427 154.606C21.2577 161.839 29.6309 172.055 37.9255 183.368C46.22 194.681 53.4335 205.743 58.2624 214.512C61.7079 220.78 65.3886 228.563 63.3707 230.039C63.1393 230.202 62.8599 230.285 62.5767 230.274H62.5777ZM1.88652 145.219C1.68396 145.211 1.48428 145.269 1.31628 145.382C-0.0315842 146.371 1.91821 151.986 6.53971 160.399C11.3244 169.172 18.5543 180.198 26.8363 191.503C35.1184 202.807 43.4811 213.003 50.3836 220.213C57.0154 227.156 61.7838 230.705 63.1441 229.716C64.5035 228.727 62.5422 223.112 57.9245 214.699C53.1158 205.926 45.9061 194.9 37.624 183.595C29.342 172.29 20.9793 162.094 14.0969 154.885C8.1679 148.712 3.74511 145.219 1.88748 145.219H1.88652Z" fill="#3B7CD3"/>
<path d="M5.81728 156.507C5.76448 156.52 5.7088 156.51 5.66272 156.481C5.61664 156.453 5.584 156.407 5.57152 156.354C5.55904 156.301 5.56864 156.245 5.59744 156.199C5.62624 156.153 5.67232 156.121 5.72512 156.109L11.3681 153.162C11.3911 153.15 11.417 153.143 11.443 153.141C11.4689 153.138 11.4958 153.141 11.5207 153.149C11.5457 153.157 11.5687 153.169 11.5889 153.187C11.609 153.204 11.6254 153.224 11.6378 153.247C11.6503 153.271 11.6571 153.296 11.6599 153.322C11.6619 153.349 11.6599 153.375 11.6513 153.4C11.6436 153.425 11.6302 153.448 11.6138 153.468C11.5966 153.488 11.5764 153.504 11.5524 153.517L5.9104 156.463C5.88448 156.486 5.8528 156.502 5.81824 156.507H5.81728Z" fill="#3B7CD3"/>
<path d="M11.4606 166.664C11.425 166.662 11.3905 166.653 11.3598 166.634C11.329 166.616 11.3031 166.59 11.2849 166.561C11.2609 166.513 11.2551 166.459 11.2695 166.409C11.2849 166.358 11.3185 166.315 11.3646 166.289L19.132 162.014C19.1551 162.001 19.18 161.994 19.206 161.991C19.2319 161.988 19.2588 161.99 19.2837 161.998C19.3087 162.005 19.3327 162.018 19.3528 162.034C19.373 162.05 19.3903 162.071 19.4028 162.094C19.4162 162.117 19.4248 162.142 19.4277 162.168C19.4306 162.193 19.4296 162.22 19.422 162.245C19.4152 162.271 19.4028 162.294 19.3864 162.315C19.3701 162.336 19.35 162.353 19.3269 162.365L11.5556 166.64C11.5258 166.656 11.4932 166.664 11.4596 166.664H11.4606Z" fill="#3B7CD3"/>
<path d="M17.3024 176.294C17.2688 176.294 17.2362 176.285 17.2074 176.269C17.1786 176.253 17.1536 176.23 17.1354 176.202C17.1066 176.158 17.097 176.104 17.1085 176.052C17.12 176 17.1508 175.955 17.1949 175.926L25.9675 170.236C25.9896 170.222 26.0136 170.211 26.0395 170.207C26.0654 170.202 26.0923 170.203 26.1173 170.208C26.1432 170.213 26.1672 170.224 26.1883 170.239C26.2094 170.255 26.2277 170.274 26.2421 170.296C26.2709 170.34 26.2815 170.394 26.2709 170.446C26.2603 170.497 26.2296 170.543 26.1864 170.571L17.41 176.258C17.3783 176.28 17.3408 176.292 17.3024 176.294Z" fill="#3B7CD3"/>
<path d="M24.9577 186.838C24.9251 186.838 24.8944 186.828 24.8656 186.814C24.8368 186.799 24.8128 186.777 24.7945 186.751C24.7657 186.706 24.7542 186.654 24.7638 186.602C24.7734 186.551 24.8032 186.505 24.8464 186.475L33.5192 180.465C33.5633 180.437 33.6171 180.425 33.6689 180.435C33.7208 180.444 33.7668 180.474 33.7976 180.517C33.8264 180.561 33.8379 180.614 33.8283 180.666C33.8187 180.717 33.7889 180.763 33.7457 180.793L25.0806 186.802C25.0441 186.827 25.0009 186.84 24.9568 186.838H24.9577Z" fill="#3B7CD3"/>
<path d="M31.4777 196.463C31.4355 196.463 31.3942 196.449 31.3606 196.424C31.327 196.398 31.302 196.364 31.2896 196.323C31.2771 196.282 31.278 196.239 31.2915 196.199C31.3049 196.159 31.3308 196.124 31.3664 196.1L40.2983 190.144C40.3434 190.114 40.3972 190.103 40.449 190.114C40.5009 190.124 40.547 190.155 40.5777 190.199C40.6065 190.242 40.6171 190.296 40.6065 190.348C40.5959 190.4 40.5652 190.445 40.522 190.474L31.5824 196.432C31.5516 196.453 31.5161 196.463 31.4787 196.463H31.4777Z" fill="#3B7CD3"/>
<path d="M37.9057 204.211C37.8721 204.211 37.8395 204.204 37.8097 204.187C37.7799 204.171 37.7559 204.148 37.7387 204.119C37.7099 204.075 37.7003 204.021 37.7118 203.97C37.7233 203.918 37.754 203.873 37.7982 203.844L46.5708 198.333C46.5929 198.319 46.6178 198.309 46.6438 198.304C46.6697 198.3 46.6966 198.301 46.7225 198.306C46.7484 198.312 46.7724 198.324 46.7935 198.339C46.8146 198.354 46.8329 198.375 46.8463 198.398C46.8732 198.443 46.8818 198.497 46.8703 198.547C46.8588 198.599 46.8271 198.643 46.783 198.672L38.0257 204.171C37.9911 204.196 37.9489 204.21 37.9057 204.211Z" fill="#3B7CD3"/>
<path d="M43.2176 211.37C43.1812 211.369 43.1456 211.359 43.1149 211.34C43.0842 211.321 43.0592 211.294 43.042 211.261C43.0295 211.238 43.0218 211.213 43.0189 211.187C43.016 211.161 43.0189 211.135 43.0266 211.111C43.0343 211.086 43.0468 211.063 43.064 211.042C43.0813 211.022 43.1015 211.006 43.1245 210.994L50.8843 206.648C50.9314 206.623 50.9861 206.619 51.037 206.635C51.0878 206.651 51.1291 206.687 51.1541 206.734C51.1781 206.781 51.1829 206.836 51.1666 206.886C51.1502 206.936 51.1147 206.979 51.0677 207.003L43.3079 211.35C43.2791 211.362 43.2474 211.369 43.2167 211.37H43.2176Z" fill="#3B7CD3"/>
<path d="M49.2541 218.053C49.2205 218.053 49.1879 218.044 49.159 218.028C49.1302 218.011 49.1053 217.988 49.087 217.961C49.0726 217.939 49.063 217.914 49.0582 217.888C49.0534 217.863 49.0544 217.836 49.0602 217.81C49.0659 217.784 49.0775 217.76 49.0928 217.739C49.1082 217.718 49.1283 217.699 49.1504 217.686L54.7329 214.153C54.778 214.125 54.8318 214.116 54.8836 214.128C54.9355 214.14 54.9796 214.171 55.0084 214.216C55.0363 214.262 55.0459 214.316 55.0334 214.367C55.0219 214.419 54.9892 214.464 54.9441 214.492L49.3616 218.025C49.329 218.044 49.2915 218.054 49.2541 218.053Z" fill="#3B7CD3"/>
<path d="M54.8525 223.945C54.817 223.945 54.7814 223.936 54.7507 223.918C54.72 223.899 54.6941 223.873 54.6768 223.842C54.6509 223.796 54.6442 223.742 54.6586 223.691C54.673 223.64 54.7066 223.597 54.7526 223.571L59.0391 221.198C59.0852 221.172 59.1399 221.166 59.1898 221.18C59.2407 221.194 59.2839 221.228 59.3098 221.274C59.3233 221.297 59.3319 221.322 59.3348 221.348C59.3377 221.374 59.3367 221.4 59.329 221.425C59.3223 221.451 59.3098 221.474 59.2935 221.496C59.2772 221.516 59.257 221.533 59.234 221.545L54.9629 223.918C54.9302 223.94 54.8909 223.949 54.8515 223.945H54.8525Z" fill="#3B7CD3"/>
<path d="M46.0844 191.1C45.8914 191.115 45.6975 191.088 45.517 191.018C45.3366 190.949 45.1734 190.841 45.039 190.702C44.6924 190.303 44.6885 189.645 45.039 188.883C45.4383 188.073 46.0086 187.359 46.7094 186.79C47.3881 186.191 48.1897 185.746 49.0585 185.49C49.8563 185.279 50.5024 185.386 50.849 185.797C51.1955 186.208 51.1994 186.854 50.849 187.615C50.0099 189.234 48.5651 190.456 46.8294 191.013C46.5855 191.072 46.335 191.102 46.0835 191.1H46.0844ZM49.7968 185.765C49.5798 185.769 49.3638 185.8 49.1545 185.856C47.5331 186.387 46.1843 187.533 45.398 189.047C45.1225 189.649 45.1033 190.155 45.3423 190.442C45.5814 190.73 46.0882 190.789 46.7295 190.622C48.35 190.09 49.6989 188.945 50.4861 187.432C50.7616 186.826 50.7808 186.319 50.5418 186.036C50.4438 185.94 50.3277 185.866 50.1981 185.819C50.0694 185.773 49.9321 185.754 49.7958 185.765H49.7968Z" fill="#3B7CD3"/>
<path d="M57.2655 207.565C57.0726 207.58 56.8787 207.552 56.6982 207.483C56.5177 207.414 56.3545 207.306 56.221 207.166C55.8697 206.767 55.8697 206.109 56.221 205.347C56.6223 204.538 57.1935 203.824 57.8963 203.254C58.5712 202.651 59.3699 202.201 60.2368 201.938C61.0346 201.727 61.6806 201.835 62.0311 202.245C62.3824 202.656 62.3776 203.302 62.0311 204.064C61.192 205.682 59.7472 206.903 58.0115 207.461C57.7686 207.525 57.518 207.561 57.2655 207.565ZM60.9741 202.229C60.7581 202.233 60.544 202.264 60.3357 202.321C58.7123 202.849 57.3615 203.995 56.5753 205.511C56.3046 206.113 56.2844 206.619 56.5235 206.907C56.7625 207.194 57.2655 207.254 57.9068 207.086C59.5302 206.557 60.88 205.412 61.6672 203.897C61.9379 203.29 61.9581 202.784 61.719 202.501C61.6221 202.404 61.505 202.329 61.3763 202.283C61.2477 202.236 61.1104 202.218 60.9731 202.229H60.9741Z" fill="#3B7CD3"/>
<path d="M66.8039 225.254C66.6109 225.269 66.417 225.241 66.2365 225.173C66.056 225.103 65.8928 224.995 65.7594 224.855C65.0653 224.034 65.7988 222.315 67.426 220.939C68.1066 220.343 68.9073 219.899 69.7751 219.639C70.5729 219.428 71.2142 219.539 71.5656 219.95C72.2558 220.772 71.5252 222.49 69.8951 223.862C69.2174 224.462 68.4167 224.907 67.5498 225.166C67.306 225.225 67.0554 225.255 66.8039 225.254ZM70.5124 219.918C70.2974 219.922 70.0833 219.953 69.875 220.011C69.0657 220.253 68.3178 220.67 67.6852 221.231C66.274 222.427 65.5319 223.954 66.0618 224.58C66.3008 224.863 66.8077 224.931 67.4452 224.764C68.2554 224.52 69.0033 224.103 69.6388 223.543C71.0462 222.347 71.7883 220.82 71.2574 220.189C71.1604 220.093 71.0433 220.018 70.9147 219.971C70.786 219.925 70.6488 219.907 70.5115 219.918H70.5124Z" fill="#3B7CD3"/>
<path d="M32.9408 173.997C32.7469 174.013 32.5529 173.985 32.3715 173.916C32.19 173.847 32.0259 173.739 31.8924 173.598C31.542 173.199 31.542 172.541 31.8924 171.784C32.2928 170.972 32.864 170.256 33.5667 169.686C35.1939 168.311 37.0122 167.876 37.7063 168.697C38.4004 169.519 37.666 171.234 36.0359 172.61C34.9549 173.499 33.8029 173.997 32.9417 173.997H32.9408ZM33.8182 169.973C33.1597 170.505 32.623 171.173 32.2476 171.932C31.9769 172.534 31.9568 173.043 32.1958 173.327C32.7257 173.953 34.3654 173.478 35.7843 172.29C37.2042 171.102 37.9338 169.562 37.4029 168.937C36.872 168.311 35.2371 168.785 33.8144 169.973H33.8182Z" fill="#3B7CD3"/>
<path d="M20.168 158.713C20.0028 158.724 19.8377 158.698 19.6831 158.638C19.5295 158.577 19.3913 158.483 19.278 158.362C18.9833 158.015 18.9785 157.469 19.278 156.83C19.6102 156.158 20.0835 155.566 20.6652 155.092C22.0208 153.952 23.5366 153.593 24.1184 154.295C24.7011 154.997 24.0944 156.42 22.7427 157.565C22.0352 158.222 21.1289 158.625 20.167 158.713H20.168ZM23.2102 154.327C22.3472 154.424 21.5389 154.801 20.9091 155.399C20.3724 155.833 19.9356 156.376 19.6294 156.994C19.4105 157.476 19.3942 157.883 19.5814 158.107C19.9606 158.553 21.2125 158.314 22.473 157.25C23.7325 156.185 24.1799 154.988 23.8045 154.542C23.7277 154.465 23.6336 154.405 23.5309 154.368C23.4282 154.331 23.3187 154.317 23.2102 154.327Z" fill="#3B7CD3"/>
<path d="M7.43706 147.005C7.29593 147.014 7.15577 146.991 7.02521 146.938C6.89465 146.884 6.77753 146.803 6.68344 146.698C6.42808 146.399 6.42424 145.94 6.68344 145.402C6.95897 144.843 7.35161 144.351 7.83546 143.959C8.29627 143.55 8.8406 143.247 9.43004 143.069C10.0041 142.917 10.4553 142.997 10.7059 143.297C10.9565 143.596 10.9651 144.058 10.7059 144.596C10.127 145.707 9.13436 146.545 7.94298 146.929C7.77786 146.974 7.60794 147 7.4361 147.005H7.43706ZM8.07547 144.265C7.6377 144.618 7.28153 145.062 7.03097 145.565C6.85913 145.964 6.84377 146.272 6.98681 146.443C7.12985 146.614 7.44954 146.65 7.86042 146.542C8.39803 146.386 8.89436 146.113 9.3158 145.745C9.75165 145.39 10.1078 144.947 10.3603 144.445C10.5321 144.046 10.5475 143.739 10.4045 143.567C10.2614 143.396 9.94173 143.356 9.53085 143.464C8.9942 143.623 8.49787 143.895 8.07547 144.261V144.265Z" fill="#3B7CD3"/>
<path d="M89.2138 214.488C82.0597 219.643 73.3793 222.359 73.1595 222.422C73.2555 222.299 75.9829 218.474 59.8133 195.765C57.6389 192.713 55.5489 189.823 53.5444 187.093C57.4479 186.215 66.7034 184.432 74.731 185.147C85.0982 186.063 92.0573 193.521 92.2762 193.76C93.8314 196.551 94.8481 198.461 94.8481 198.461C94.8481 198.461 96.6904 196.826 97.8069 199.131C98.9234 201.436 96.4628 209.267 89.2138 214.488Z" fill="#3B7CD3"/>
<path d="M72.6293 222.79L73.0037 222.303C73.0316 222.268 75.6476 218.352 59.6499 195.882C57.5561 192.938 55.447 190.024 53.3858 187.212L53.2063 186.965L53.501 186.902C57.174 186.072 66.5927 184.225 74.7509 184.947C84.8589 185.845 91.6741 192.827 92.4152 193.625L92.4719 193.708C93.7074 195.925 94.6088 197.6 94.9122 198.166C95.3797 197.814 95.9673 197.66 96.5471 197.739C97.1366 197.855 97.6194 198.298 97.9862 199.051C99.1468 201.444 96.6748 209.363 89.3288 214.651C82.1114 219.835 73.3032 222.59 73.2149 222.626L72.6293 222.79ZM53.8869 187.224C55.8809 189.959 57.9382 192.807 59.9763 195.65C73.6018 214.79 73.8975 220.585 73.5106 222.1C75.3212 221.501 82.8131 218.85 89.0984 214.328C96.4108 209.061 98.6121 201.253 97.6271 199.227C97.534 198.966 97.3804 198.732 97.1798 198.541C96.9791 198.351 96.7362 198.21 96.4713 198.13C95.7177 197.983 94.988 198.613 94.9794 198.617L94.7884 198.784L94.6722 198.561C94.6722 198.561 93.6402 196.623 92.109 193.879C91.2277 192.946 84.5517 186.215 74.7145 185.342C66.8231 184.632 57.728 186.371 53.8879 187.224H53.8869Z" fill="#3B7CD3"/>
<path d="M78.5785 172.996C73.2235 172.378 62.768 170.791 61.2771 167.736C59.9888 165.092 65.6634 165.307 69.9029 165.805C72.1474 167.54 75.6207 170.049 78.5795 172.996H78.5785Z" fill="#3B7CD3"/>
<path d="M79.1338 173.264L78.5635 173.195C72.6853 172.518 62.6129 170.914 61.1018 167.824C60.9636 167.606 60.8896 167.353 60.8896 167.095C60.8896 166.836 60.9636 166.583 61.1018 166.365C61.8794 165.269 64.8497 165.013 69.9224 165.607H69.9781L70.0213 165.639L71.2184 166.565C73.8498 168.493 76.3526 170.593 78.7104 172.849L79.1338 173.264ZM65.3643 165.687C63.2148 165.687 61.8554 165.991 61.4321 166.589C61.337 166.749 61.29 166.934 61.2948 167.12C61.2996 167.308 61.3572 167.489 61.4599 167.645C62.8798 170.552 73.0914 172.123 78.0288 172.721C75.8025 170.641 73.4562 168.693 71.0024 166.887C70.604 166.572 70.2056 166.278 69.8427 165.998C68.3566 165.814 66.8619 165.712 65.3643 165.695V165.687Z" fill="#3B7CD3"/>
</g>
<defs>
<clipPath id="clip0_72_799">
<rect width="240.001" height="230.275" fill="white" transform="translate(0.499512)"/>
</clipPath>
</defs>
</svg>
